<svg width="30" height="30" viewBox="0 0 30 30" fill="none" xmlns="http://www.w3.org/2000/svg">
<path d="M15.5 3C8.59644 3 3 8.59644 3 15.5C3 22.4036 8.59644 28 15.5 28C22.4036 28 28 22.4036 28 15.5C28 8.59644 22.4036 3 15.5 3Z" fill="url(#paint0_radial)"/>
<path fill-rule="evenodd" clip-rule="evenodd" d="M16.5238 19.6389C15.8948 19.0998 15.822 18.1528 16.3611 17.5238L18.5244 15L16.3611 12.4762C15.822 11.8472 15.8948 10.9003 16.5238 10.3611C17.1528 9.82201 18.0998 9.89486 18.6389 10.5238L21.6389 14.0238C22.1204 14.5856 22.1204 15.4145 21.6389 15.9762L18.6389 19.4762C18.0998 20.1052 17.1528 20.1781 16.5238 19.6389Z" fill="#100A17"/>
<path fill-rule="evenodd" clip-rule="evenodd" d="M10.5238 19.6389C9.89482 19.0998 9.82198 18.1528 10.3611 17.5238L12.5244 15L10.3611 12.4762C9.82198 11.8472 9.89482 10.9003 10.5238 10.3611C11.1528 9.82201 12.0998 9.89486 12.6389 10.5238L15.6389 14.0238C16.1204 14.5856 16.1204 15.4145 15.6389 15.9762L12.6389 19.4762C12.0998 20.1052 11.1528 20.1781 10.5238 19.6389Z" fill="#100A17"/>
<defs>
<radialGradient id="paint0_radial" cx="0" cy="0" r="1" gradientUnits="userSpaceOnUse" gradientTransform="translate(2.93308 26.4828) scale(25.8347 17.1241)">
<stop stop-color="#D7D6DB"/>
<stop offset="1" stop-color="#A8A2A9"/>
</radialGradient>
</defs>
</svg>
