<svg width="24" height="24" viewBox="0 0 24 24" fill="none" xmlns="http://www.w3.org/2000/svg">
<path d="M21.0082 10.17H3.8349C3.27525 10.17 2.82156 10.6568 2.82156 11.2572V11.3717C2.82156 11.9721 3.27525 12.4589 3.8349 12.4589H21.0082C21.5679 12.4589 22.0216 11.9721 22.0216 11.3717V11.2572C22.0216 10.6568 21.5679 10.17 21.0082 10.17Z" fill="white"/>
<path d="M21.0082 15.8922H3.8349C3.27525 15.8922 2.82156 16.379 2.82156 16.9795V17.0939C2.82156 17.6944 3.27525 18.1811 3.8349 18.1811H21.0082C21.5679 18.1811 22.0216 17.6944 22.0216 17.0939V16.9795C22.0216 16.379 21.5679 15.8922 21.0082 15.8922Z" fill="white"/>
<path d="M21.0082 4.44778H3.8349C3.27525 4.44778 2.82156 4.93455 2.82156 5.53501V5.64945C2.82156 6.24991 3.27525 6.73667 3.8349 6.73667H21.0082C21.5679 6.73667 22.0216 6.24991 22.0216 5.64945V5.53501C22.0216 4.93455 21.5679 4.44778 21.0082 4.44778Z" fill="white"/>
</svg>

