<svg width="26" height="24" viewBox="0 0 26 24" fill="none" xmlns="http://www.w3.org/2000/svg">
<path d="M5 7.39999H6.66667H20" stroke="#C1B7CE" stroke-width="2" stroke-linecap="round" stroke-linejoin="round"/>
<path d="M9.16663 7.4V5.7C9.16663 5.24913 9.34222 4.81673 9.65478 4.49792C9.96734 4.17911 10.3913 4 10.8333 4H14.1666C14.6087 4 15.0326 4.17911 15.3451 4.49792C15.6577 4.81673 15.8333 5.24913 15.8333 5.7V7.4M18.3333 7.4V19.3C18.3333 19.7509 18.1577 20.1833 17.8451 20.5021C17.5326 20.8209 17.1087 21 16.6666 21H8.33329C7.89127 21 7.46734 20.8209 7.15478 20.5021C6.84222 20.1833 6.66663 19.7509 6.66663 19.3V7.4H18.3333Z" stroke="#C1B7CE" stroke-width="2" stroke-linecap="round" stroke-linejoin="round"/>
</svg>
