<svg width="20" height="20" viewBox="0 0 20 20" fill="none" xmlns="http://www.w3.org/2000/svg">
<path d="M18.4522 6.1701C18.2462 6.21435 18.0565 6.31446 17.9037 6.45943C17.7509 6.60441 17.641 6.78866 17.586 6.99199C17.5285 7.20047 17.532 7.42105 17.5961 7.62759C17.6232 7.71238 17.6229 7.80354 17.5953 7.88817C17.5678 7.9728 17.5143 8.04661 17.4424 8.09916L13.772 10.7589L11.2696 6.65007C11.221 6.56808 11.2011 6.47226 11.2129 6.3777C11.2248 6.28314 11.2677 6.1952 11.335 6.12772C11.5053 5.94905 11.6193 5.72427 11.6628 5.48133C11.7064 5.2384 11.6776 4.98801 11.58 4.76131C11.4824 4.5346 11.3204 4.34157 11.114 4.20622C10.9076 4.07087 10.666 3.99916 10.4192 4.00001C10.1724 4.00086 9.93125 4.07423 9.72579 4.21099C9.52034 4.34776 9.35962 4.5419 9.2636 4.76927C9.16758 4.99664 9.14051 5.24722 9.18574 5.48985C9.23097 5.73249 9.34652 5.95647 9.51802 6.13397C9.58375 6.20105 9.62531 6.2881 9.63612 6.3814C9.64694 6.4747 9.62641 6.56894 9.57777 6.64929L7.075 10.7589L3.40394 8.09858C3.3321 8.04602 3.27861 7.97221 3.25103 7.88758C3.22345 7.80295 3.22318 7.71179 3.25026 7.627C3.31426 7.42045 3.31778 7.19989 3.26042 6.9914C3.20725 6.79668 3.10379 6.61938 2.96042 6.47729C2.81706 6.33521 2.63884 6.23334 2.44365 6.18191C2.24847 6.13049 2.04319 6.13131 1.84843 6.18431C1.65366 6.23731 1.47627 6.34062 1.33406 6.48386C1.19185 6.6271 1.08982 6.80523 1.03822 7.00037C0.986628 7.19551 0.987277 7.40079 1.04011 7.5956C1.09294 7.79041 1.19609 7.96789 1.3392 8.11023C1.48232 8.25257 1.66036 8.35475 1.85546 8.40652C1.99779 8.44365 2.14587 8.45353 2.29188 8.43561C2.3837 8.42687 2.47581 8.44901 2.55363 8.49853C2.63144 8.54804 2.69051 8.62211 2.72147 8.70899L4.90849 14.5192H15.9381L18.1251 8.70899C18.1561 8.62211 18.2151 8.54804 18.2929 8.49853C18.3708 8.44901 18.4629 8.42687 18.5547 8.43561C18.7007 8.45353 18.8488 8.44365 18.9911 8.40652C19.2799 8.32784 19.5267 8.13973 19.679 7.88212C19.8314 7.62451 19.8774 7.31765 19.8073 7.02667C19.7372 6.73569 19.5565 6.48348 19.3035 6.32356C19.0505 6.16364 18.7451 6.10859 18.4522 6.1701Z" fill="#FFC121"/>
<path d="M4.90894 14.5193H15.9379V15.9381H4.90894V14.5193Z" fill="#502800"/>
<path d="M11.4821 11.3957L10.4235 13.0401L9.36499 11.3957L10.4235 9.75119L11.4821 11.3957Z" fill="#502800"/>
<path d="M5.08838 9.31943L6.22504 6.74637L8.25838 8.81603L7.07485 10.7592L5.08838 9.31943Z" fill="#DD7100"/>
<path d="M15.7586 9.31943L14.622 6.74637L12.5886 8.81603L13.7722 10.7592L15.7586 9.31943Z" fill="#DD7100"/>
</svg>
