<svg width="20" height="20" viewBox="0 0 20 20" fill="none" xmlns="http://www.w3.org/2000/svg">
<path d="M17.3139 5.38534L15.5765 3.66324L16.8222 2.1276C16.9288 1.99582 17.1051 1.95931 17.196 2.0502L18.9399 3.79409C19.0319 3.88608 18.9932 4.0651 18.8586 4.17098L17.3139 5.38534Z" fill="#FDB62F"/>
<path d="M16.7416 7.40424L13.5858 4.24845C13.3861 4.0487 13.3861 3.72487 13.5858 3.52511L14.1738 2.93718C14.3735 2.73743 14.6974 2.73743 14.8971 2.93718L18.0529 6.09297C18.2527 6.29272 18.2527 6.61655 18.0529 6.81631L17.465 7.40424C17.2652 7.60396 16.9414 7.60396 16.7416 7.40424Z" fill="#BBC6D4"/>
<path d="M18.0529 6.09296L17.3686 5.40866C17.5683 5.60841 17.5683 5.93224 17.3685 6.13196L16.7806 6.7199C16.5808 6.91965 16.257 6.91965 16.0573 6.7199L16.7416 7.40423C16.9413 7.60398 17.2652 7.60398 17.4649 7.40423L18.0529 6.8163C18.2526 6.61655 18.2526 6.29272 18.0529 6.09296Z" fill="#A7B7C6"/>
<path d="M13.5858 4.24845L16.0573 6.7199L13.5858 4.24841L13.5858 4.24845Z" fill="#A7B7C6"/>
<path d="M13.5216 4.18427C13.7808 4.44342 13.7808 4.86355 13.5216 5.1227C13.2929 5.35142 12.9429 5.40089 12.6563 5.25087C9.94211 3.83004 6.52106 4.23529 4.21016 6.46683C1.30479 9.27247 1.25698 14.0011 4.10748 16.8625C6.95498 19.7208 11.5805 19.7242 14.4321 16.8725C16.7436 14.561 17.1792 11.084 15.7389 8.33317C15.5889 8.04685 15.6387 7.69697 15.8673 7.46845L15.8673 7.46838C16.1265 7.20923 16.5466 7.20923 16.8058 7.46838" fill="#CDD2DF"/>
<path d="M15.8673 7.46841L15.8673 7.46835C16.1265 7.2092 16.5466 7.2092 16.8058 7.46835L15.7651 6.42766C15.5204 6.46061 15.2705 6.56619 15.135 6.70169L14.9356 6.84799C14.7071 7.07651 14.5163 7.32291 14.6662 7.60923C16.1065 10.3601 15.671 13.8371 13.3594 16.1486C11.0083 18.4997 7.45166 18.9097 4.67957 17.3795C7.54414 19.7091 11.7643 19.5403 14.4321 16.8724C16.7436 14.5609 17.1791 11.0839 15.7388 8.3331C15.589 8.04684 15.6387 7.69697 15.8673 7.46841Z" fill="#BBC6D4"/>
<path d="M9.40275 18.3928C13.0443 18.3928 15.9963 15.4408 15.9963 11.7993C15.9963 8.15779 13.0443 5.20576 9.40275 5.20576C5.76123 5.20576 2.8092 8.15779 2.8092 11.7993C2.8092 15.4408 5.76123 18.3928 9.40275 18.3928Z" fill="#E4E9F4"/>
<path d="M13.3594 16.1486C11.9024 17.6056 9.98236 18.3169 8.073 18.2832C8.46241 18.3548 8.86367 18.3926 9.27381 18.3926C12.9152 18.3926 15.8672 15.4406 15.8672 11.7992C15.8672 10.7458 15.6198 9.75038 15.1805 8.86719C15.937 11.36 15.3302 14.1779 13.3594 16.1486Z" fill="#D3D8E2"/>
<path d="M3.37393 13.0219C3.35075 12.9154 3.4628 12.8304 3.55807 12.8834C3.95941 13.1068 4.50156 13.3604 5.16816 13.5456C7.37438 14.1585 9.27823 13.5594 9.62574 13.4447C11.4301 12.8493 11.6973 11.9754 13.5405 11.6728C14.1945 11.5654 14.7572 11.5775 15.1536 11.6105C15.2185 11.6159 15.2687 11.6702 15.2688 11.7353C15.2688 11.7357 15.2688 11.7361 15.2688 11.7365C15.2688 15.0593 12.5751 17.7529 9.25232 17.7529C6.37073 17.7529 3.96273 15.727 3.37393 13.0219Z" fill="#F288E8"/>
<path d="M15.132 13.0219C15.1552 12.9154 15.0431 12.8304 14.9479 12.8834C14.5465 13.1068 14.0044 13.3604 13.3378 13.5456C11.1316 14.1585 9.22771 13.5594 8.8802 13.4447C7.07584 12.8493 6.80869 11.9754 4.9654 11.6728C4.31149 11.5654 3.74874 11.5775 3.35236 11.6105C3.28744 11.6159 3.23722 11.6702 3.23718 11.7353C3.23718 11.7357 3.23718 11.7361 3.23718 11.7365C3.23718 15.0593 5.93084 17.7529 9.25363 17.7529C12.1352 17.7529 14.5432 15.727 15.132 13.0219Z" fill="#7A6CF7"/>
<path d="M13.8877 10.8401C14.259 10.8401 14.56 10.5391 14.56 10.1679C14.56 9.79657 14.259 9.49558 13.8877 9.49558C13.5164 9.49558 13.2155 9.79657 13.2155 10.1679C13.2155 10.5391 13.5164 10.8401 13.8877 10.8401Z" fill="#F288E8"/>
<path d="M11.6138 8.15339C11.929 8.15339 12.1845 7.89786 12.1845 7.58266C12.1845 7.26746 11.929 7.01194 11.6138 7.01194C11.2986 7.01194 11.0431 7.26746 11.0431 7.58266C11.0431 7.89786 11.2986 8.15339 11.6138 8.15339Z" fill="#F288E8"/>
<path d="M10.1096 12.125C10.5572 12.125 10.92 11.7622 10.92 11.3146C10.92 10.867 10.5572 10.5042 10.1096 10.5042C9.66203 10.5042 9.29919 10.867 9.29919 11.3146C9.29919 11.7622 9.66203 12.125 10.1096 12.125Z" fill="#F288E8"/>
</svg>
