<svg width="367" height="386" viewBox="0 0 367 386" fill="none" xmlns="http://www.w3.org/2000/svg">
<path d="M12.1018 231.861C12.1018 231.861 29.4022 217.896 30.638 218.731C31.8737 219.566 25.695 229.656 25.695 229.656C25.695 229.656 33.3766 221.17 36.3157 220.702C39.2548 220.201 29.4022 237.106 29.4022 241.783C29.4022 241.783 33.243 234.066 34.8796 234.233C36.5161 234.4 31.5731 252.541 31.5731 252.541C31.5731 252.541 39.2882 234.968 40.8245 234.233C42.3608 233.464 40.8245 243.353 40.8245 243.353C40.8245 243.353 61.2644 215.991 64.7712 215.758C64.7712 215.758 51.011 235.636 44.0641 253.376C37.1173 271.116 36.0151 290.594 36.0151 290.594C36.0151 290.594 47.4708 260.025 55.2526 250.135C63.0345 240.246 53.7831 259.089 53.7831 259.089C53.7831 259.089 62.2329 248.766 63.4687 248.899C64.7044 249.033 59.895 255.347 59.895 255.347C59.895 255.347 67.3095 249.735 69.9146 248.766C72.5196 247.797 66.8419 255.915 66.8419 255.915C66.8419 255.915 82.2386 242.585 84.1757 242.451C86.1128 242.318 81.4704 249.735 81.4704 249.735C81.4704 249.735 85.9458 244.122 90.5548 240.948C95.1638 237.774 93.8947 258.989 88.3505 269.245C88.3505 269.245 100.007 262.731 110.26 241.783C120.513 220.836 148.735 135.543 152.676 101.599C156.617 67.6555 142.623 45.8728 120.914 48.8796C120.914 48.8796 99.6392 113.359 90.7552 126.322C81.9046 139.284 65.5394 168.851 44.0641 188.062C22.5889 207.205 12.1018 231.861 12.1018 231.861Z" fill="#08040D"/>
<path d="M120.914 48.847C120.914 48.847 94.0617 131.434 54.8185 167.95C26.4965 194.31 -11.0433 220.77 -23 274.993C-23 274.993 -19.2928 265.17 -14.3498 261.362C-14.3498 261.362 -23 283.245 -21.3635 293.668C-21.3635 293.668 -16.4205 279.235 -12.7133 274.993C-9.00604 270.75 -15.1848 296.675 -11.8783 306.163C-11.8783 306.163 -6.53455 277.632 4.98792 257.72C16.5104 237.808 30.7382 210.446 48.9403 189.733C67.1425 169.019 91.323 140.889 108.456 100.531C120.513 72.0997 120.914 48.847 120.914 48.847Z" fill="url(#paint0_linear)"/>
<path d="M168.473 40.1595C168.473 40.1595 223.18 31.2727 265.997 68.958C265.997 68.958 259.518 127.156 240.514 192.638C224.082 249.2 168.306 289.257 168.306 289.257C168.306 289.257 139.383 244.89 143.692 175.232C148 105.541 168.473 40.1595 168.473 40.1595Z" fill="url(#paint1_radial)"/>
<path d="M168.306 289.257C168.306 289.257 224.082 249.167 240.514 192.639C259.518 127.19 265.997 68.9584 265.997 68.9584C223.18 31.2396 168.473 40.1598 168.473 40.1598C168.473 40.1598 230.795 36.8189 263.659 69.6266C263.659 69.6266 251.201 154.051 235.805 200.389C219.707 248.766 168.306 289.257 168.306 289.257Z" fill="url(#paint2_linear)"/>
<path d="M215.799 127.357C215.799 127.357 216.1 128.694 216.234 130.798C216.367 132.903 215.666 135.442 215.666 135.442L220.676 139.05C220.676 139.05 221.711 134.473 221.911 132.636C222.112 130.798 221.778 127.925 221.778 127.925L215.799 127.357Z" fill="url(#paint3_radial)"/>
<path d="M221.878 132.603C222.078 130.765 221.744 127.892 221.744 127.892L221.076 127.825C221.243 128.761 221.544 130.932 221.377 132.135C221.176 133.705 220.241 138.282 220.241 138.282L215.632 135.409L220.642 139.017C220.642 139.017 221.677 134.44 221.878 132.603Z" fill="url(#paint4_linear)"/>
<path d="M171.513 124.618C171.513 124.618 174.552 130.531 181.532 131.266C190.249 132.168 197.096 129.195 198.064 128.193C199.033 127.157 179.295 120.442 171.513 124.618Z" fill="url(#paint5_radial)"/>
<path d="M176.823 103.67C176.823 103.67 190.416 104.873 194.391 105.307C198.365 105.742 208.518 105.307 208.518 105.307C208.518 105.307 201.237 117.268 209.62 126.455C209.62 126.455 186.609 130.999 174.652 126.455C162.662 121.945 171.446 103.704 176.823 103.67Z" fill="#020103"/>
<path d="M186.709 102.969C186.709 102.969 177.558 115.464 183.636 129.329C183.636 129.329 205.178 128.627 209.62 127.391L211.056 126.054C211.056 126.054 206.581 122.647 206.614 116.065C206.681 109.483 210.522 105.073 210.522 105.073L225.251 105.374C225.251 105.374 223.815 102.601 222.178 102.067C220.542 101.565 209.62 104.238 209.62 104.238L186.709 102.969Z" fill="url(#paint6_radial)"/>
<path d="M222.178 102.1C220.542 101.599 209.62 104.272 209.62 104.272L186.709 103.002C186.709 103.002 186.475 103.303 186.108 103.904L208.518 105.341C208.518 105.341 210.355 104.004 219.64 102.635C220.642 102.501 222.044 102.468 222.712 102.835C223.414 103.203 225.251 105.408 225.251 105.408C225.251 105.408 223.815 102.601 222.178 102.1Z" fill="url(#paint7_linear)"/>
<path d="M207.483 108.782C207.483 108.782 208.451 104.606 211.591 104.472C213.795 104.372 220.508 104.706 220.976 104.706C225.251 104.706 230.628 104.405 230.995 111.789C230.995 111.789 233.133 114.194 233.066 115.698C232.999 117.201 231.062 119.339 231.062 119.339C231.062 119.339 232.431 121.344 231.53 122.346C230.628 123.382 229.76 124.417 229.76 124.417C229.76 124.417 230.227 125.386 228.457 126.622C226.687 127.858 224.316 129.362 224.316 129.362C224.316 129.362 219.473 130.13 218.104 129.061C217.436 128.56 214.53 126.622 214.53 126.622C214.53 126.622 213.261 126.689 211.023 126.121C211.056 126.088 203.174 121.177 207.483 108.782Z" fill="url(#paint8_radial)"/>
<path d="M219.273 126.288C218.304 128.226 219.506 129.529 219.506 129.529C219.506 129.529 218.872 129.395 218.471 128.36C218.037 127.324 219.273 126.288 219.273 126.288ZM220.508 111.755C220.508 111.755 217.77 113.927 219.607 117.201C219.64 117.234 219.139 115.263 220.508 111.755ZM227.422 118.003C227.422 118.003 229.025 114.228 226.253 111.488C226.253 111.488 227.99 114.862 226.821 117.201H220.241L226.62 118.036C226.62 118.036 228.491 120.408 226.019 122.112L219.941 122.513L225.819 122.713C225.819 122.713 224.249 123.883 224.55 125.887L219.306 126.288L224.449 126.656C224.449 126.656 223.347 127.558 224.383 129.328C224.383 129.328 223.915 127.758 225.084 126.656C225.084 126.656 225.284 123.448 227.222 122.546C227.222 122.546 228.023 122.045 228.357 120.876C228.591 119.707 227.422 118.003 227.422 118.003ZM219.273 122.747C217.135 124.518 219.273 126.322 219.273 126.322C218.438 124.618 219.273 122.747 219.273 122.747ZM219.64 117.234C219.64 117.234 216.935 119.874 219.273 122.747C219.273 122.747 218.137 120.742 219.64 117.234ZM222.679 111.087L224.884 108.849C224.884 108.849 221.444 110.72 220.508 111.789L226.22 111.521L222.679 111.087Z" fill="url(#paint9_linear)"/>
<path d="M209.153 110.419C209.153 110.419 211.39 104.272 215.933 107.379C215.933 107.379 219.54 112.423 220.074 112.958C220.609 113.492 220.575 118.27 220.675 118.972C220.775 119.707 217.102 120.742 215.599 118.972C214.096 117.201 213.394 115.13 212.793 114.495C212.192 113.86 208.852 112.891 209.153 110.419Z" fill="url(#paint10_radial)"/>
<path d="M212.793 114.496C212.793 114.496 216.066 110.253 220.107 112.959C220.107 112.959 216.4 111.957 212.793 114.496Z" fill="url(#paint11_linear)"/>
<path d="M215.866 107.746C216.534 109.283 216.033 111.02 214.663 111.588C213.327 112.19 211.691 111.421 210.99 109.884C210.322 108.348 210.823 106.61 212.192 106.042C213.561 105.441 215.198 106.209 215.866 107.746Z" fill="url(#paint12_radial)"/>
<path d="M228.323 127.658C226.854 128.527 225.217 128.46 224.683 127.558C224.149 126.656 224.917 125.219 226.386 124.35C227.856 123.482 229.492 123.549 230.027 124.451C230.561 125.353 229.793 126.789 228.323 127.658Z" fill="url(#paint13_radial)"/>
<path d="M230.561 123.649C229.159 124.918 227.388 125.286 226.62 124.417C225.852 123.582 226.32 121.845 227.722 120.542C229.125 119.272 230.895 118.905 231.663 119.773C232.432 120.642 231.931 122.379 230.561 123.649Z" fill="url(#paint14_radial)"/>
<path d="M232.465 117.368C231.396 119.205 229.626 120.174 228.524 119.54C227.422 118.905 227.388 116.9 228.457 115.029C229.526 113.192 231.296 112.223 232.398 112.858C233.5 113.526 233.534 115.531 232.465 117.368Z" fill="url(#paint15_radial)"/>
<path d="M230.728 110.085C230.461 112.056 229.392 113.526 228.29 113.392C227.188 113.259 226.52 111.555 226.754 109.584C227.021 107.612 228.09 106.142 229.192 106.276C230.327 106.443 230.995 108.147 230.728 110.085Z" fill="url(#paint16_radial)"/>
<path d="M217.469 109.483L219.74 112.557C219.74 112.557 220.375 111.789 221.076 111.254C221.777 110.72 223.113 109.851 223.113 109.851C223.113 109.851 223.581 102.501 224.316 100.162C225.084 97.8237 225.151 94.2155 225.151 94.2155L219.239 92.8458C219.239 92.8458 219.54 95.8526 218.939 97.9239C218.404 99.9619 217.135 105.942 217.469 109.483Z" fill="url(#paint17_radial)"/>
<path d="M224.082 99.5276C223.18 102.802 222.679 107.913 222.679 110.152C222.946 109.951 223.147 109.851 223.147 109.851C223.147 109.851 223.614 102.501 224.349 100.162C225.117 97.8237 225.184 94.2155 225.184 94.2155L219.273 92.8458L224.75 94.4828C224.75 94.4494 224.75 97.1555 224.082 99.5276Z" fill="url(#paint18_linear)"/>
<path d="M131.268 248.599C133.104 250.536 131.602 262.263 126.358 270.481C119.278 281.607 112.464 286.484 106.686 286.484C100.908 286.484 105.183 271.851 111.028 263.265C119.578 250.637 129.431 246.628 131.268 248.599Z" fill="url(#paint19_radial)"/>
<path d="M120.48 150.677C120.48 150.677 113.466 160.232 112.665 173.362C111.863 186.491 111.462 191.636 111.095 195.244C110.727 198.853 104.849 206.136 104.148 207.338C103.413 208.541 104.749 210.078 104.749 210.078L102.678 215.724C102.678 215.724 100.508 216.125 100.508 217.996C100.508 219.833 99.7728 223.241 98.871 225.012C97.9359 226.749 96.7001 226.983 96.7001 227.384C96.7001 227.785 97.4349 229.856 97.4349 229.856L95.264 236.137C95.264 236.137 92.8927 236.738 92.5921 237.874C92.2915 239.01 93.0931 241.583 92.5921 242.618C92.0911 243.654 90.3878 244.356 92.5253 247.362L88.3839 256.517C88.3839 256.517 85.5116 257.252 85.1776 258.053C84.8771 258.889 84.3427 262.363 84.3427 262.363C84.3427 262.363 76.661 263.065 67.1759 280.204C57.6907 297.376 52.6142 309.035 50.4433 312.744C48.239 316.452 44.8323 321.13 44.1309 323.602C43.4296 326.074 47.4374 328.145 52.7811 328.145C58.1249 328.145 61.9657 332.956 64.7044 333.625C67.4431 334.326 71.8517 335.262 73.4882 333.625C75.1247 331.987 85.4114 311.508 92.9595 303.156C100.508 294.77 112.297 280.237 116.439 275.827C120.547 271.45 125.49 261.695 127.126 258.254C128.763 254.813 133.839 244.656 136.745 240.146C139.617 235.603 157.051 206.938 160.291 198.686C163.53 190.433 162.729 175.333 160.725 168.417C158.721 161.501 133.271 143.327 120.48 150.677Z" fill="url(#paint20_radial)"/>
<path d="M104.716 210.112C104.716 210.112 110.427 206.67 121.516 211.08C132.637 215.457 138.582 221.37 138.582 221.37L135.476 228.654C135.476 228.654 121.282 214.02 102.679 215.791C102.679 215.758 102.044 212.584 104.716 210.112ZM95.2643 236.137C114.001 235.636 126.358 248.098 126.358 248.098L128.83 242.752C128.83 242.752 121.816 235.202 111.964 231.894C102.078 228.587 97.4352 229.823 97.4352 229.823C94.8635 232.329 95.2643 236.137 95.2643 236.137Z" fill="url(#paint21_radial)"/>
<path d="M121.549 211.047C112.865 209.109 106.619 209.978 105.517 210.746C104.415 211.515 102.678 215.758 102.678 215.758C102.678 215.758 102.077 212.55 104.749 210.111C104.716 210.111 110.427 206.67 121.549 211.047ZM97.9024 230.792C99.4721 229.656 115.771 232.896 121.682 236.872C118.977 235.035 115.67 233.197 111.93 231.928C102.044 228.62 97.4014 229.856 97.4014 229.856C94.8297 232.328 95.2305 236.137 95.2305 236.137C95.2305 236.137 96.3327 231.928 97.9024 230.792Z" fill="url(#paint22_linear)"/>
<path d="M153.778 188.563C150.639 189.264 144.927 201.726 139.951 212.985C134.975 224.243 125.857 245.391 124.154 247.864C122.484 250.336 126.592 253.911 132.503 249.501C138.415 245.124 157.485 213.319 160.291 204.833C163.13 196.38 156.817 187.861 153.778 188.563Z" fill="url(#paint23_radial)"/>
<path d="M127.16 258.288C127.16 258.288 111.196 257.686 105.05 255.047C98.1703 252.107 92.526 247.396 92.526 247.396C92.526 247.396 88.084 252.642 88.3846 256.55C88.3846 256.55 98.6379 258.956 102.679 261.695C111.029 267.308 117.241 274.992 117.241 274.992C117.241 274.992 122.752 270.849 127.16 258.288Z" fill="url(#paint24_radial)"/>
<path d="M92.6923 249.033C92.6923 249.033 98.3033 253.577 103.179 255.347C108.056 257.118 118.91 257.686 118.91 257.686C114.034 257.218 108.223 256.383 105.016 255.013C98.1363 252.073 92.4919 247.362 92.4919 247.362C92.4919 247.362 88.0499 252.608 88.3505 256.517C88.3505 256.517 91.1226 250.47 92.6923 249.033Z" fill="url(#paint25_linear)"/>
<path d="M45.2331 325.94C44.3981 327.21 36.3157 341.175 36.3157 351.732C36.3157 355.842 53.6161 360.519 56.622 360.252C59.6278 359.984 64.0364 361.22 67.0423 362.323C70.0481 363.425 85.2778 362.457 93.5273 356.409C93.5273 356.409 92.8259 350.095 90.3544 347.757C87.8829 345.418 80.3349 345.284 77.997 344.315C75.6591 343.38 71.2839 336.765 71.1503 333.19C71.0167 329.615 67.4431 327.377 64.9048 328.847C62.3665 330.317 58.7929 329.348 54.4177 327.41C50.0425 325.54 47.0366 323.201 45.2331 325.94Z" fill="url(#paint26_radial)"/>
<path d="M94.3956 356.543C94.1952 356.276 93.5606 356.41 93.5606 356.41C85.3112 362.457 70.0815 363.425 67.0756 362.323C64.0698 361.22 59.6612 359.984 56.6553 360.252C53.6494 360.519 36.349 355.875 36.349 351.732C36.349 351.732 35.2469 352.568 35.1133 353.67C34.9797 354.772 34.7125 357.646 35.1133 358.047C35.5141 358.447 37.852 361.488 44.0975 363.125C50.343 364.762 53.2153 364.094 54.1838 363.96C55.1524 363.826 57.7574 362.69 57.7574 362.69C57.7574 362.69 62.7004 365.731 66.5412 366.265C70.3821 366.8 83.0735 365.096 87.2149 363.726C92.4251 362.022 94.5292 359.984 94.6628 359.416C94.7964 358.915 94.596 356.81 94.3956 356.543Z" fill="url(#paint27_radial)"/>
<path d="M71.1168 332.556C71.1168 332.556 68.7121 340.707 55.2526 351.064L59.4942 354.973C59.4942 354.973 70.6159 351.766 75.492 342.11C75.492 342.144 72.3192 333.625 71.1168 332.556Z" fill="url(#paint28_radial)"/>
<path d="M74.1895 344.382C74.6571 343.681 75.1247 342.946 75.5255 342.144C75.5255 342.144 72.3526 333.625 71.1168 332.556C71.1168 332.556 70.6827 334.059 69.1129 336.565L74.1895 344.382Z" fill="url(#paint29_linear)"/>
<path d="M36.3491 352C37.0171 356.042 53.683 360.519 56.622 360.252C59.6279 359.984 64.0365 361.22 67.0424 362.323C67.3096 362.423 67.6435 362.49 68.0443 362.557C69.0463 360.652 69.0797 356.911 66.5414 353.102C64.1701 349.561 56.0209 345.585 55.2861 344.549C54.5513 343.514 53.4492 337.032 47.6712 334.56C41.8933 332.088 38.8206 335.295 38.8206 335.295C34.7126 345.585 36.2823 351.766 36.2823 351.766C36.3157 351.832 36.3491 351.933 36.3491 352Z" fill="url(#paint30_radial)"/>
<path d="M80.9695 361.555C85.4449 360.586 90.1207 358.949 93.5607 356.443C93.5607 356.443 95.1639 348.792 88.8849 345.184C81.938 341.208 75.5255 342.144 75.5255 342.144C75.5255 342.144 83.8084 350.53 80.9695 361.555Z" fill="url(#paint31_radial)"/>
<path d="M88.8849 345.184C81.938 341.208 75.5255 342.144 75.5255 342.144C75.5255 342.144 75.8929 342.511 76.3939 343.146C78.5314 343.213 84.1423 343.614 87.9164 346.086C90.8888 348.024 92.659 350.496 93.5607 352.066C93.1599 349.728 91.991 346.955 88.8849 345.184Z" fill="url(#paint32_linear)"/>
<path d="M82.773 260.525C82.773 260.525 91.156 258.421 103.179 269.98C103.179 269.98 74.7907 309.837 70.3821 316.987C66.007 324.136 59.9284 334.56 59.9284 334.56C59.9284 334.56 45.7675 332.121 42.962 325.005C42.1939 323.1 48.1054 315.617 55.6534 300.082C63.2349 284.58 69.7476 271.951 82.773 260.525Z" fill="url(#paint33_radial)"/>
<path d="M82.773 260.526C69.7476 271.985 63.2015 284.58 55.6534 300.082C48.1054 315.584 42.1939 323.067 42.962 325.005C43.9306 327.477 46.2685 329.381 48.9069 330.818C45.8677 327.577 44.131 323.635 44.131 323.635C46.6359 320.094 60.563 293.667 66.6081 283.244C72.6532 272.82 84.3427 262.43 84.3427 262.43C90.822 262.597 103.179 270.014 103.179 270.014C91.156 258.388 82.773 260.526 82.773 260.526Z" fill="url(#paint34_linear)"/>
<path d="M61.7987 334.961C61.7987 334.961 70.2485 337.333 74.6571 335.696C76.4272 335.028 82.773 320.261 90.0872 311.809C97.4015 303.356 111.796 284.279 113.967 281.106C113.967 281.106 109.893 274.457 104.482 270.749C104.482 270.749 87.2818 294.402 82.0382 301.719C76.828 309.036 63.9696 329.515 61.7987 334.961Z" fill="url(#paint35_radial)"/>
<path d="M86.7809 282.843C94.6296 285.549 97.8692 289.759 97.8692 289.759L94.2956 295.204C89.8536 290.928 83.2407 288.222 83.2407 288.222L86.7809 282.843ZM66.842 315.183C66.842 315.183 73.4549 317.889 77.8969 322.165L81.4706 316.72C81.4706 316.72 78.1975 312.51 70.3823 309.804L66.842 315.183Z" fill="url(#paint36_radial)"/>
<path d="M162.395 158.294H121.749C121.749 158.294 117.34 180.043 119.545 190.5C121.749 200.924 127.627 210.846 130.232 212.985C132.837 215.123 131.902 216.793 133.338 218.029C134.774 219.266 136.444 219.065 136.444 219.065L140.619 223.275C140.619 223.275 140.185 227.083 141.153 227.718C142.155 228.319 144.827 228.119 145.428 228.754C146.03 229.355 150.839 232.161 150.806 233.398C150.772 234.634 152.843 235.669 155.014 235.669L160.792 239.478C160.792 239.478 160.792 240.714 161.293 241.316C161.794 241.917 165.935 243.487 166.637 244.924C167.371 246.36 168.373 252.14 169.943 252.942C171.479 253.777 173.016 254.479 173.016 254.479L173.951 261.361C173.951 261.361 171.88 263.833 172.515 264.969C173.116 266.105 174.585 267.542 174.585 267.542C174.585 267.542 170.878 287.62 172.949 297.075C175.02 306.563 178.493 326.508 179.729 333.725C180.964 340.941 179.729 342.879 180.13 344.95C180.53 347.022 183.436 349.494 186.108 348.024C188.78 346.587 202.306 345.953 209.721 345.685C214.997 345.485 212.058 341.075 211.324 333.09C210.856 328.279 211.858 286.752 212.292 280.17C212.693 273.589 215.699 253.41 214.296 245.993C212.893 238.576 207.75 231.159 205.279 228.286C202.807 225.413 176.856 185.522 171.947 177.972C167.004 170.455 162.395 158.294 162.395 158.294Z" fill="url(#paint37_radial)"/>
<path d="M174.351 264.201C173.817 263.232 175.12 261.294 175.053 260.025C174.986 258.755 174.719 253.978 173.884 253.376C173.049 252.775 171.212 250.67 170.377 249.367C169.542 248.064 171.613 242.852 170.778 241.115C169.943 239.411 164.8 241.716 163.497 240.981C162.194 240.213 161.894 238.175 161.727 237.674C161.526 237.206 159.723 236.438 158.721 235.536C157.686 234.634 156.116 234.834 154.112 234.634C152.108 234.433 151.908 232.228 151.574 231.794C151.34 231.493 149.303 229.756 147.599 228.553C148.034 226.148 150.872 218.664 150.872 218.664C148.935 220.903 145.529 227.351 145.529 227.351C144.493 227.25 143.191 227.351 142.122 226.515C141.053 225.68 141.955 221.704 141.187 220.736C140.419 219.767 138.114 217.562 138.114 217.562C138.114 217.562 135.776 217.695 134.407 217.094C133.038 216.493 133.104 214.087 131.702 213.118C130.299 212.149 125.79 206.771 125.79 206.771C127.493 209.811 129.13 212.016 130.199 212.918C132.804 215.056 131.869 216.727 133.305 217.963C134.741 219.199 136.411 218.998 136.411 218.998L140.586 223.208C140.586 223.208 140.151 227.016 141.12 227.651C142.122 228.253 144.794 228.052 145.395 228.687C145.996 229.288 150.806 232.095 150.772 233.331C150.739 234.567 152.809 235.603 154.98 235.603L160.758 239.411C160.758 239.411 160.758 240.647 161.259 241.249C161.76 241.85 165.902 243.42 166.603 244.857C167.338 246.293 168.34 252.073 169.909 252.875C171.446 253.71 172.982 254.412 172.982 254.412L173.917 261.294C173.917 261.294 171.847 263.766 172.481 264.902C173.082 266.038 174.552 267.475 174.552 267.475C174.552 267.475 173.016 275.727 172.481 284.112C172.815 281.941 176.489 267.709 176.489 267.709C176.489 267.709 174.886 265.17 174.351 264.201Z" fill="#020103"/>
<path d="M163.898 202.929C153.043 208.842 140.653 223.275 140.653 223.275C138.114 222.339 136.478 219.065 136.478 219.065C138.816 210.345 153.812 191.603 153.812 191.603C155.615 192.238 163.898 202.929 163.898 202.929ZM170.778 216.927C170.778 216.927 162.395 223.308 155.081 235.636C155.081 235.636 157.218 238.476 160.859 239.445C160.859 239.445 170.811 227.785 178.36 224.076C178.326 224.043 173.65 217.762 170.778 216.927Z" fill="url(#paint38_radial)"/>
<path d="M156.884 235.302C157.018 234.7 165.902 221.27 170.778 216.893C170.778 216.893 162.395 223.274 155.081 235.602C155.081 235.602 157.218 238.442 160.859 239.411C160.825 239.444 156.751 235.936 156.884 235.302Z" fill="url(#paint39_linear)"/>
<path d="M149.203 197.616C144.594 203.864 137.947 213.486 136.478 219.032C136.478 219.032 138.114 222.339 140.653 223.241C140.653 223.241 137.847 220.067 137.48 218.564C137.513 218.597 144.46 204.799 149.203 197.616Z" fill="url(#paint40_linear)"/>
<path d="M165.568 166.245C163.063 164.374 146.33 161.769 143.692 170.522C141.053 179.275 163.497 211.013 170.912 219.867C178.326 228.72 183.803 231.393 188.078 231.794C192.32 232.195 203.642 229.388 203.675 226.048C203.675 221.671 169.809 169.419 165.568 166.245Z" fill="url(#paint41_radial)"/>
<path d="M203.642 226.081C203.642 225.747 203.442 225.112 203.074 224.244C198.899 230.09 187.577 230.057 183.636 228.186C172.214 222.84 152.876 193.106 148 185.355C154.413 197.984 166.002 213.987 170.945 219.9C178.359 228.754 183.837 231.427 188.112 231.828C192.32 232.228 203.642 229.389 203.642 226.081Z" fill="url(#paint42_linear)"/>
<path d="M181.098 344.85C181.098 344.85 179.962 351.632 179.662 356.577C179.361 361.521 180.397 375.018 180.397 375.018C180.397 375.018 179.628 377.691 180.363 380.163C181.098 382.636 198.398 383.771 199.434 383.371C200.469 382.97 202.106 380.999 202.74 380.999C203.341 380.999 206.548 382.97 207.683 383.872C208.819 384.807 231.563 386.945 240.113 385.008C248.663 383.036 248.964 380.999 248.964 380.999C248.964 380.999 249.364 378.426 248.964 377.591C248.563 376.756 247.127 376.555 247.127 376.555C247.127 376.555 246.826 365.53 240.347 363.158C233.867 360.786 223.982 359.75 219.773 356.142C215.565 352.534 213.895 345.485 213.194 343.881C212.459 342.278 212.192 337.333 206.08 338.536C202.874 339.171 202.874 342.645 197.53 344.616C194.357 345.785 182.133 345.886 181.098 344.85Z" fill="url(#paint43_radial)"/>
<path d="M240.28 380.664C235.938 381.867 217.135 381.166 211.758 380.364C206.414 379.529 204.744 378.526 203.308 378.393C201.872 378.292 200.836 378.593 194.758 378.393C188.679 378.192 180.363 374.985 180.363 374.985C180.363 374.985 179.595 377.658 180.33 380.13C181.064 382.602 198.365 383.738 199.4 383.337C200.436 382.936 202.072 380.965 202.707 380.965C203.308 380.965 206.514 382.936 207.65 383.838C208.785 384.774 231.53 386.912 240.08 384.974C248.63 383.003 248.93 380.965 248.93 380.965C248.93 380.965 249.331 378.393 248.93 377.557C248.529 376.722 247.093 376.522 247.093 376.522C247.093 376.522 246.559 378.927 240.28 380.664Z" fill="url(#paint44_radial)"/>
<path d="M240.28 380.664C245.657 379.161 246.793 377.223 247.026 376.689L247.06 376.555C247.06 376.555 249.097 372.011 246.659 366.198C243.553 358.848 229.359 359.049 229.359 359.049C220.041 365.363 220.241 377.624 220.508 381.065C228.023 381.433 237.374 381.5 240.28 380.664Z" fill="url(#paint45_radial)"/>
<path d="M246.659 366.198C243.553 358.848 229.359 359.049 229.359 359.049C224.249 362.523 222.011 367.735 221.076 372.346C221.143 372.179 225.284 363.058 229.592 360.252C229.592 360.252 239.445 361.12 242.451 363.025C245.457 364.929 247.26 367.902 247.694 370.174C247.561 368.971 247.26 367.635 246.659 366.198Z" fill="url(#paint46_linear)"/>
<path d="M192.52 370.174C192.52 370.174 200.669 350.429 214.363 347.423C214.363 347.423 220.208 355.04 221.076 357.145C221.076 357.145 205.178 364.495 195.693 377.157L192.52 370.174Z" fill="url(#paint47_radial)"/>
<path d="M210.422 348.792C211.925 350.93 215.398 355.875 217.469 359.015C219.673 357.779 221.076 357.144 221.076 357.144C220.208 355.04 214.363 347.423 214.363 347.423C212.994 347.723 211.691 348.191 210.422 348.792Z" fill="url(#paint48_linear)"/>
<path d="M194.792 378.393C195.827 378.426 196.695 378.46 197.463 378.46C197.463 378.46 198.065 376.589 193.957 367.234C189.849 357.913 178.927 353.102 178.927 353.102C176.957 372.747 180.363 374.985 180.363 374.985C180.363 374.985 188.713 378.192 194.792 378.393Z" fill="url(#paint49_radial)"/>
<path d="M194.825 369.339C194.558 368.704 194.257 368.003 193.923 367.268C189.815 357.947 178.894 353.136 178.894 353.136C178.059 361.488 178.192 366.666 178.626 369.907C178.626 369.907 179.361 356.61 179.962 355.307C180.029 355.274 191.318 361.889 194.825 369.339Z" fill="url(#paint50_linear)"/>
<path d="M174.151 270.382C174.151 270.382 173.149 270.649 172.615 271.15C172.114 271.651 169.809 289.692 172.548 306.296C175.287 322.901 178.359 348.96 178.493 350.029C178.627 351.131 186.742 356.109 193.455 348.459C193.455 348.459 188.913 313.747 191.285 275.861C191.285 275.861 180.129 273.556 174.151 270.382Z" fill="url(#paint51_radial)"/>
<path d="M179.595 349.594C179.595 349.594 174.819 306.296 173.617 300.216C172.414 294.135 172.882 275.526 173.717 272.319C173.817 271.985 174.552 271.718 174.552 271.718C179.896 275.059 191.285 275.86 191.285 275.86C191.285 275.86 180.129 273.555 174.151 270.348C174.151 270.348 173.149 270.615 172.615 271.116C172.114 271.617 169.809 289.658 172.548 306.263C175.287 322.867 178.359 348.926 178.493 349.995C178.627 351.097 186.742 356.075 193.455 348.425C185.406 354.806 179.595 349.594 179.595 349.594Z" fill="url(#paint52_linear)"/>
<path d="M193.055 276.094C193.055 276.094 207.984 275.259 214.663 268.677C214.663 268.677 211.958 331.119 213.06 338.536C214.162 345.952 215.598 347.69 215.598 347.69C215.598 347.69 213.327 345.284 208.819 347.356C204.276 349.427 203.375 351.532 200.269 350.73C198.365 350.229 195.125 347.89 195.125 347.89C195.125 347.89 193.222 327.811 192.487 313.713C191.418 293.601 193.055 276.094 193.055 276.094Z" fill="url(#paint53_radial)"/>
<path d="M204.778 347.422C202.072 349.761 199.835 350.262 195.092 347.89C195.092 347.89 198.332 350.195 200.235 350.73C203.308 351.565 204.243 349.427 208.785 347.356C213.328 345.284 215.565 347.69 215.565 347.69C215.565 347.69 214.129 345.952 213.027 338.536C211.925 331.119 214.63 268.677 214.63 268.677C207.95 275.259 193.021 276.094 193.021 276.094C193.021 276.094 205.345 277.264 212.159 272.987C212.159 272.987 210.622 325.473 211.123 333.591C211.624 341.476 212.626 344.716 212.626 344.716C212.626 344.716 208.585 344.148 204.778 347.422Z" fill="url(#paint54_linear)"/>
<path d="M184.505 294.67C192.554 292.632 197.563 294.369 197.563 294.369V300.85C191.518 299.714 184.505 301.084 184.505 301.084V294.67ZM185.573 332.622C185.573 332.622 192.587 331.252 198.632 332.388V325.907C198.632 325.907 193.589 324.17 185.573 326.208V332.622Z" fill="url(#paint55_radial)"/>
<path d="M198.366 234.199C198.366 234.199 184.973 247.797 173.083 254.445C173.083 254.445 172.281 259.39 174.018 261.328C174.018 261.328 193.99 260.192 204.979 261.328C204.945 261.361 205.914 239.578 198.366 234.199Z" fill="url(#paint56_radial)"/>
<path d="M173.984 255.414C173.984 255.414 186.676 248.064 198.332 234.199C198.332 234.199 184.939 247.797 173.049 254.445C173.049 254.445 172.247 259.39 173.984 261.328C173.984 261.361 173.416 257.252 173.984 255.414Z" fill="url(#paint57_linear)"/>
<path d="M217.669 244.122C220.341 258.087 218.104 270.248 212.626 271.317C207.149 272.353 200.536 261.896 197.864 247.931C195.192 233.966 197.43 221.805 202.907 220.736C208.385 219.7 214.998 230.157 217.669 244.122Z" fill="url(#paint58_radial)"/>
<path d="M198.599 248.666C195.927 234.701 198.165 222.54 203.642 221.471C205.312 221.137 207.115 221.905 208.852 223.542C206.882 221.437 204.811 220.368 202.907 220.736C197.43 221.771 195.159 233.966 197.864 247.931C199.734 257.586 203.442 265.571 207.383 269.246C203.709 265.303 200.336 257.719 198.599 248.666Z" fill="url(#paint59_linear)"/>
<path d="M218.972 243.287C221.21 254.946 218.972 265.203 213.929 266.172C208.919 267.141 203.007 258.454 200.77 246.795C198.532 235.135 200.77 224.878 205.813 223.909C210.856 222.94 216.734 231.593 218.972 243.287Z" fill="url(#paint60_radial)"/>
<path d="M112.431 157.592L95.932 200.69C95.932 200.69 99.5724 208.274 118.576 206.637C118.576 206.637 127.093 158.194 126.358 156.824C125.623 155.421 114.335 155.22 112.431 157.592Z" fill="url(#paint61_radial)"/>
<path d="M110.861 161.668L95.8987 200.69C95.8987 200.69 99.5391 208.274 118.543 206.637C102.512 205.635 97.7356 200.69 97.7356 200.69L110.861 161.668Z" fill="url(#paint62_linear)"/>
<path d="M126.358 155.154L122.751 211.281C122.751 211.281 150.205 220.067 162.395 204.833L150.839 153.216C150.873 153.216 136.478 149.641 126.358 155.154Z" fill="url(#paint63_radial)"/>
<path d="M125.69 165.611L122.751 211.281C122.751 211.281 143.458 217.896 156.884 209.677C142.122 214.622 124.822 210.078 124.822 210.078L125.69 165.611Z" fill="url(#paint64_linear)"/>
<path d="M148.535 152.28L159.656 203.764C159.656 203.764 181.9 205.835 188.078 193.273C188.078 193.273 175.053 170.555 170.244 164.775C165.434 158.996 156.35 151.011 148.535 152.28Z" fill="url(#paint65_radial)"/>
<path d="M159.656 203.73C159.656 203.73 181.9 205.802 188.078 193.24C188.078 193.24 175.053 170.522 170.244 164.742C168.975 163.239 167.438 161.568 165.702 159.965C165.835 160.165 180.23 181.346 186.642 193.24C186.609 193.24 182.635 202.862 159.656 203.73Z" fill="url(#paint66_linear)"/>
<path d="M176.756 61.408L178.36 62.2432C178.36 62.2432 186.843 82.9568 182.301 96.5542C177.758 110.152 174.485 123.749 174.218 130.865C173.951 138.015 171.747 160.8 170.912 161.601C170.077 162.437 137.38 153.082 111.897 161.067C111.897 161.067 114.769 142.959 115.203 133.338C115.604 123.716 111.362 92.1443 112.598 80.6182C113.834 69.0921 123.653 46.1735 131.168 43.2001C138.682 40.2601 144.46 41.3626 146.364 42.4317C148.268 43.5342 175.187 60.5728 176.756 61.408Z" fill="black"/>
<path d="M177.023 55.695C177.023 55.695 182.167 58.2675 185.339 58.3677C187.811 58.4345 197.997 27.8987 196.895 19.6133C196.06 13.3658 188.479 2.57471 174.786 4.54584C164.632 6.01584 160.057 16.6399 159.122 35.7164L150.705 49.7816C150.705 49.7816 170.945 66.9204 176.556 66.9204L177.023 55.695Z" fill="black"/>
<path d="M184.07 29.2014C184.07 29.2014 193.656 28.7002 198.165 27.7648C198.165 27.7648 202.306 3.07546 180.864 0.269098C154.813 -3.13863 152.976 27.0298 152.876 29.2014C152.776 31.3729 141.755 37.8543 139.283 38.0548C139.283 38.0548 141.621 49.8816 152.375 49.8816C164.9 49.8816 166.403 50.5497 167.538 51.1511C172.08 53.4897 175.888 56.2293 175.888 56.2293C175.888 56.2293 181.599 33.8452 184.07 29.2014Z" fill="url(#paint67_radial)"/>
<path d="M180.898 0.26946C175.086 -0.498947 170.477 0.436517 166.837 2.30742C167.037 2.2406 178.226 -2.63712 189.648 4.51241C198.332 9.92466 197.129 26.2951 196.962 27.9655C197.396 27.8987 197.797 27.8319 198.198 27.7317C198.198 27.7651 202.306 3.07582 180.898 0.26946Z" fill="url(#paint68_linear)"/>
<path d="M199.1 31.5403L198.432 34.0794C198.432 34.0794 193.923 36.1174 187.01 35.0149L187.678 32.3421C187.644 32.3756 196.762 31.7742 199.1 31.5403Z" fill="black"/>
<path d="M181.499 28.7339C181.499 28.7339 188.646 24.8251 191.017 22.7537C196.161 18.2769 197.831 11.8958 198.498 9.42352C198.498 9.42352 203.241 18.7112 199.5 31.841C199.5 31.841 192.754 33.1439 187.778 32.9769L187.11 34.7141C187.11 34.7141 193.455 35.3489 199.033 33.6116C199.033 33.6116 197.931 39.4916 192.019 55.5613C189.882 61.3411 188.011 68.8247 188.011 68.8247C188.011 68.8247 178.359 61.575 175.921 56.2295C175.921 56.2295 179.228 31.5737 181.499 28.7339Z" fill="url(#paint69_radial)"/>
<path d="M199.1 31.3398C199.1 31.3398 194.39 32.5092 187.811 32.9769C192.787 33.1773 199.534 31.841 199.534 31.841C203.274 18.7112 198.532 9.42352 198.532 9.42352C198.532 9.42352 202.373 20.2815 199.1 31.3398Z" fill="url(#paint70_linear)"/>
<path d="M178.426 59.9721C178.426 59.9383 178.393 59.9383 178.393 59.9045C178.393 59.9383 178.393 59.9383 178.426 59.9721Z" fill="url(#paint71_linear)"/>
<path d="M199.033 33.6116C193.455 35.3489 187.11 34.7141 187.11 34.7141C187.11 34.7141 190.249 35.7164 198.198 34.4135C198.198 34.4135 193.422 49.7816 190.082 58.9691C188.178 64.1475 187.444 66.9872 187.444 66.9872C187.444 66.9872 180.062 61.7754 178.526 60.0716C182.267 64.4815 188.045 68.8247 188.045 68.8247C188.045 68.8247 189.915 61.3411 192.053 55.5613C197.931 39.4916 199.033 33.6116 199.033 33.6116Z" fill="url(#paint72_linear)"/>
<path d="M184.672 32.0751C184.037 35.5162 181.298 37.9217 178.56 37.4206C175.821 36.9194 174.084 33.7121 174.719 30.271C175.353 26.8299 178.092 24.4244 180.831 24.9256C183.569 25.4267 185.273 28.634 184.672 32.0751Z" fill="url(#paint73_radial)"/>
<path d="M180.831 24.9253C179.762 24.7249 178.693 24.9921 177.758 25.5601C178.526 25.226 179.361 25.1258 180.196 25.2594C182.935 25.7605 184.672 28.9678 184.037 32.4089C183.67 34.5137 182.467 36.2175 180.998 37.1195C182.768 36.3511 184.237 34.4803 184.672 32.0748C185.273 28.6337 183.569 25.4264 180.831 24.9253Z" fill="url(#paint74_linear)"/>
<path d="M149.904 36.8189C149.904 36.8189 153.177 45.2714 158.821 49.982C164.466 54.6593 172.014 56.0625 173.383 57.5659C174.752 59.0693 175.02 63.1786 175.02 63.1786C175.02 63.1786 178.359 64.515 178.359 62.2098C178.359 62.2098 185.874 74.7047 187.778 83.8922C189.715 93.0797 188.479 97.356 187.778 99.394C187.076 101.465 182.835 106.51 182.835 106.51C182.835 106.51 183.536 114.628 182.133 119.306C180.764 123.983 177.892 128.794 177.458 130.698C177.057 132.636 175.12 152.113 175.253 155.822C175.387 159.53 177.023 169.152 176.222 170.221C175.387 171.324 171.413 169.119 167.171 166.78C162.929 164.441 151.54 159.764 139.851 160.466C139.851 160.466 140.686 104.472 142.322 91.0083C143.959 77.5445 145.495 63.9804 144.093 57.4991C142.723 51.0511 135.175 43.2334 129.264 42.7991C129.264 42.7991 131.034 40.1932 134.741 40.0596C138.448 39.926 144.059 40.8948 144.059 40.8948C144.059 40.8948 146.931 38.5896 149.904 36.8189ZM110.26 79.5156C108.623 97.6233 113.5 116.566 112.999 122.881C110.928 150.075 104.115 172.192 104.849 174.063C105.584 175.901 111.329 176.235 120.179 169.954C129.03 163.673 138.381 160.065 138.381 160.065C138.381 160.065 139.818 104.171 140.653 94.984C141.487 85.8299 144.26 73.5354 143.592 62.9113C142.957 52.2539 138.315 49.4475 135.142 46.8416C131.969 44.2357 128.429 43.6009 128.429 43.6009C115.771 49.7148 111.896 61.4079 110.26 79.5156Z" fill="url(#paint75_radial)"/>
<path d="M164.265 90.3401C165.768 92.0774 173.917 99.1601 175.854 100.43C178.259 102 183.636 102 183.636 102C183.636 102 180.163 104.038 176.823 103.67C171.646 103.069 165.234 96.5876 162.829 92.8124C160.892 89.7388 161.059 86.7319 161.059 86.7319C161.059 86.7319 162.796 88.6029 164.265 90.3401ZM176.255 122.747C176.255 122.747 169.308 120.709 165.801 124.518C162.295 128.36 160.992 134.574 160.992 134.574C160.992 134.574 165.434 127.858 167.939 125.921C171.513 123.181 176.255 122.747 176.255 122.747Z" fill="#020103"/>
<path d="M182.167 119.306C183.536 114.628 182.868 106.51 182.868 106.51C182.868 106.51 187.11 101.465 187.811 99.394C188.512 97.3226 189.748 93.0797 187.811 83.8922C185.874 74.7047 178.393 62.2098 178.393 62.2098C178.393 64.515 175.053 63.1786 175.053 63.1786C175.053 63.1786 174.786 59.0693 173.416 57.5659C172.381 56.43 167.739 55.3609 163.13 52.8218C163.13 52.8218 167.672 55.528 172.247 57.3321C174.452 58.2007 174.452 63.8468 174.452 63.8468C174.452 63.8468 177.491 65.5507 178.56 63.5127C178.56 63.5127 185.139 76.5422 186.141 81.6204C187.143 86.6986 187.477 95.6188 186.809 98.1579C186.108 100.697 181.599 105.808 181.599 105.808C181.599 105.808 182.133 113.927 181.599 117.702C181.065 121.477 177.491 126.221 176.522 129.562C175.554 132.937 173.85 152.214 174.118 155.154C174.385 158.094 175.22 167.248 175.153 168.317C175.086 169.419 172.381 167.849 166.069 165.043C159.756 162.236 151.54 161.301 151.54 161.301C158.554 162.671 164.465 165.21 167.238 166.746C171.479 169.085 175.487 171.29 176.289 170.188C177.124 169.085 175.454 159.497 175.32 155.788C175.186 152.08 177.09 132.602 177.524 130.665C177.925 128.794 180.797 123.983 182.167 119.306Z" fill="url(#paint76_linear)"/>
<path d="M149.971 161.1C146.43 159.965 140.786 159.263 140.786 159.263C140.786 159.263 142.088 106.41 142.222 102.033C142.356 97.6567 143.124 84.5938 143.124 84.5938C142.89 86.732 142.623 88.9036 142.356 91.0417C140.719 104.506 139.884 160.499 139.884 160.499C143.324 160.299 146.764 160.566 149.971 161.1Z" fill="url(#paint77_linear)"/>
<path d="M133.772 110.887C133.772 110.887 142.389 110.085 146.831 111.822V105.341C146.831 105.341 141.688 103.437 133.772 104.472V110.887Z" fill="url(#paint78_radial)"/>
<path d="M131.969 138.182C131.969 138.182 140.586 137.38 145.028 139.117V132.636C145.028 132.636 139.884 130.732 131.969 131.767V138.182Z" fill="url(#paint79_radial)"/>
<path d="M177.725 70.0275C177.725 70.0275 176.756 61.3746 166.837 52.7884C160.525 47.3428 150.171 37.7544 142.489 37.4871C134.808 37.2198 126.859 40.3603 125.323 42.1644C123.82 43.935 120.881 48.8127 120.881 48.8127C120.881 48.8127 127.193 43.7012 133.739 44.3025C140.319 44.9039 177.725 70.0275 177.725 70.0275Z" fill="#9A90A6"/>
<path d="M178.66 69.9273C179.428 72.6669 179.127 75.1391 177.992 75.4732C176.856 75.8073 175.287 73.8362 174.485 71.1301C173.717 68.3905 174.018 65.9182 175.153 65.5841C176.322 65.2166 177.892 67.1878 178.66 69.9273Z" fill="url(#paint80_radial)"/>
<path d="M133.973 194.209C122.851 195.111 113.834 195.812 113.433 190.868C113.032 185.923 122.05 185.188 133.172 184.286C144.293 183.384 159.556 181.547 159.991 187.093C160.458 192.672 145.128 193.307 133.973 194.209Z" fill="url(#paint81_radial)"/>
<path d="M116.105 196.882C112.698 197.149 109.726 194.61 109.425 191.202C109.124 187.794 111.696 184.821 115.103 184.52C118.509 184.253 121.482 186.792 121.782 190.2C122.05 193.607 119.511 196.581 116.105 196.882Z" fill="url(#paint82_radial)"/>
<path d="M115.971 195.144C113.5 195.345 111.362 193.507 111.162 191.068C110.961 188.596 112.798 186.458 115.236 186.257C117.708 186.057 119.845 187.894 120.046 190.333C120.246 192.806 118.409 194.944 115.971 195.144Z" fill="#020103"/>
<path d="M123.152 49.0466C123.152 49.0466 92.2915 98.8594 90.2208 105.04C88.1501 111.221 93.2267 125.921 94.763 129.061C96.2659 132.235 121.515 171.892 121.515 171.892C121.515 171.892 141.955 165.444 142.924 158.728C142.924 158.728 127.56 120.007 121.916 113.559C121.916 113.559 148.835 82.8565 152.776 75.4063C157.753 66.0518 143.692 36.8189 123.152 49.0466Z" fill="#020103"/>
<path d="M91.4565 106.543C91.4565 106.543 105.417 103.169 123.553 111.688V115.864C123.553 115.864 110.06 115.898 97.9692 121.711C97.9692 121.711 89.8868 110.853 91.4565 106.543Z" fill="url(#paint83_radial)"/>
<path d="M91.457 106.543C91.4236 106.677 91.3568 106.811 91.3568 106.944C94.3627 106.51 108.524 104.973 123.085 112.223V115.865C123.386 115.865 123.553 115.865 123.553 115.865V111.688C105.418 103.136 91.457 106.543 91.457 106.543Z" fill="url(#paint84_linear)"/>
<path d="M127.427 66.9204C127.026 71.7647 108.356 104.071 103.68 105.174C99.0046 106.276 91.5902 100.096 92.0243 99.394C92.4251 98.6924 113.433 63.1452 113.433 63.1452C116.839 60.84 127.827 62.0761 127.427 66.9204Z" fill="url(#paint85_radial)"/>
<path d="M132.77 68.8248C132.77 68.8248 110.126 105.441 109.726 107.245C109.325 109.016 125.389 114.929 127.427 113.559C129.464 112.19 149.703 82.5559 150.672 80.7518C151.607 78.9143 141.287 68.2902 132.77 68.8248Z" fill="url(#paint86_radial)"/>
<path d="M137.413 100.263L126.258 112.891C121.782 112.758 110.26 108.08 110.26 108.08C113.065 110.386 125.623 114.762 127.427 113.56C128.328 112.958 132.67 106.978 137.413 100.263Z" fill="url(#paint87_linear)"/>
<path d="M103.179 104.305C101.109 104.372 95.0301 102.301 92.8926 100.697C94.9633 102.668 100.107 106.042 103.647 105.207C106.452 104.539 114.268 92.6788 120.179 82.2552C120.112 82.322 105.25 104.205 103.179 104.305Z" fill="url(#paint88_linear)"/>
<path d="M101.743 72.6334L94.7295 89.104C94.7295 89.104 106.653 87.467 117.173 92.4115C127.66 97.356 135.91 108.281 135.91 108.281C135.91 108.281 143.725 95.9195 144.961 92.2111C146.196 88.5027 124.588 70.1945 101.743 72.6334Z" fill="url(#paint89_radial)"/>
<path d="M112.464 90.6409C114.034 91.1087 115.637 91.71 117.173 92.445C127.66 97.3895 135.91 108.314 135.91 108.314C135.91 108.314 143.725 95.9529 144.961 92.2445L135.81 105.909C135.81 105.875 125.356 93.3136 112.464 90.6409Z" fill="url(#paint90_linear)"/>
<path d="M111.028 53.9244C111.028 53.9244 100.34 68.5575 97.6351 75.3395C97.6351 75.3395 117.674 78.7807 125.423 83.6584C136.01 90.3402 140.652 97.356 145.595 95.719C150.538 94.082 159.589 85.0281 161.025 80.2841C162.462 75.54 137.78 43.601 111.028 53.9244Z" fill="url(#paint91_radial)"/>
<path d="M161.025 80.2506C161.025 80.2506 150.705 93.5809 144.293 93.8147C139.918 93.9818 133.705 87.6007 125.69 82.6561C117.674 77.7116 101.443 76.0411 101.443 76.0411C107.655 77.3106 119.778 80.0836 125.423 83.625C136.01 90.3068 140.652 97.3227 145.595 95.6857C150.538 94.0486 159.589 84.9947 161.025 80.2506Z" fill="url(#paint92_linear)"/>
<path d="M101.743 59.9049C101.743 59.9049 108.423 43.1002 128.228 39.8595C140.485 37.855 141.855 34.18 143.692 34.18C150.672 34.18 164.332 42.4654 168.006 46.8754C171.713 51.252 170.344 56.5306 171.179 59.9384C172.014 63.3461 174.919 71.2974 173.784 74.8722C172.682 78.4469 165.267 85.1621 158.253 83.3915C151.24 81.6208 139.951 64.4486 131.067 60.0052C117.44 53.0895 101.743 59.9049 101.743 59.9049Z" fill="url(#paint93_radial)"/>
<path d="M169.876 58.4345C169.876 60.7398 172.982 68.5909 173.082 72.3995C173.149 76.2081 166.302 82.6226 161.994 83.5581C167.705 82.8565 172.882 77.7783 173.817 74.8383C174.919 71.2636 172.014 63.3122 171.212 59.9045C170.377 56.4968 171.746 51.2516 168.039 46.8416C164.332 42.465 150.705 34.1462 143.725 34.1462C143.725 34.1462 158.187 38.3557 166.636 46.875C169.742 50.0823 169.876 53.7907 169.876 58.4345Z" fill="url(#paint94_linear)"/>
<path d="M131.1 59.9714C134.407 61.6418 138.081 65.0829 141.721 68.8247C135.843 61.6752 131.167 56.6973 119.879 55.6616C108.59 54.626 101.743 59.9046 101.743 59.9046C101.743 59.9046 117.44 53.0892 131.1 59.9714Z" fill="url(#paint95_linear)"/>
<path d="M150.338 173.128C150.338 173.128 152.041 176.134 153.811 176.97C155.548 177.805 158.32 179.843 159.69 183.284L155.014 183.986C155.014 183.986 155.281 191.402 155.715 193.307C156.116 195.244 155.648 201.692 153.811 202.227C152.008 202.761 150.338 202.761 149.403 202.227C148.434 201.692 147.332 198.652 147.332 198.652C147.332 198.652 147.466 201.525 146.631 202.628C145.796 203.73 142.389 204.699 141.153 204.131C139.918 203.597 138.949 200.289 138.949 200.289C138.949 200.289 138.882 203.363 137.413 204.298C135.943 205.234 133.171 205.033 132.336 202.561C132.336 202.561 129.03 204.098 127.393 202.461C125.757 200.824 124.02 196.38 124.254 194.109C124.521 191.837 125.323 185.99 125.122 183.284C124.922 180.611 122.851 174.698 122.751 172.593C122.651 170.488 133.038 161.468 139.317 162.504C145.595 163.539 148.534 170.622 150.338 173.128Z" fill="#020103"/>
<path d="M126.358 201.125C126.358 201.125 129.831 202.027 131.334 199.688C131.334 199.688 130.032 202.895 126.358 201.125ZM138.114 197.65C135.342 201.225 131.334 199.688 131.334 199.688C135.609 202.027 138.114 197.65 138.114 197.65ZM146.13 195.412C142.623 199.22 138.114 197.65 138.114 197.65C142.79 200.757 146.13 195.412 146.13 195.412ZM153.778 193.24C151.841 197.182 146.597 195.645 146.597 195.645C151.674 198.519 153.778 193.24 153.778 193.24Z" fill="#020103"/>
<path d="M136.177 194.443C136.912 196.547 136.244 198.719 134.708 199.254C133.138 199.788 131.301 198.519 130.533 196.414C129.798 194.309 130.466 192.137 132.002 191.603C133.572 191.035 135.409 192.304 136.177 194.443Z" fill="url(#paint96_radial)"/>
<path d="M128.896 195.879C129.531 197.717 129.03 199.588 127.727 200.055C126.425 200.523 124.855 199.387 124.221 197.516C123.586 195.679 124.087 193.808 125.39 193.34C126.659 192.906 128.262 194.008 128.896 195.879Z" fill="url(#paint97_radial)"/>
<path d="M143.959 191.469C144.694 193.574 143.825 195.812 141.988 196.447C140.152 197.082 138.081 195.879 137.346 193.774C136.611 191.67 137.48 189.431 139.317 188.797C141.12 188.162 143.224 189.364 143.959 191.469Z" fill="url(#paint98_radial)"/>
<path d="M153.578 189.331C154.313 191.436 153.444 193.674 151.607 194.309C149.77 194.944 147.7 193.741 146.965 191.636C146.23 189.531 147.099 187.293 148.936 186.658C150.772 186.024 152.843 187.226 153.578 189.331Z" fill="url(#paint99_radial)"/>
<path d="M125.089 184.119L124.254 193.507C124.254 193.507 125.69 191.77 128.462 193.206C128.462 193.206 131.034 189.665 135.208 191.035C135.208 191.035 138.315 186.057 143.725 188.362C143.725 188.362 145.829 184.487 150.872 185.79C150.872 185.79 151.24 178.172 149.035 174.197C146.764 170.255 127.159 178.473 125.089 184.119Z" fill="url(#paint100_radial)"/>
<path d="M149.002 174.197C149.002 174.197 148.968 174.197 149.002 174.197C150.805 178.273 150.605 185.288 150.605 185.288C145.729 184.353 143.558 187.861 143.558 187.861C137.58 185.923 135.075 190.634 135.075 190.634C130.699 189.565 128.261 192.806 128.261 192.806C126.291 191.803 124.888 192.605 124.32 193.106L124.287 193.507C124.287 193.507 125.723 191.77 128.495 193.206C128.495 193.206 131.067 189.665 135.242 191.035C135.242 191.035 138.348 186.057 143.758 188.362C143.758 188.362 145.862 184.487 150.906 185.79C150.839 185.79 151.206 178.172 149.002 174.197Z" fill="url(#paint101_linear)"/>
<path d="M142.489 157.793C142.489 157.793 149.637 165.611 153.778 174.464C153.778 174.464 137.747 174.865 124.688 186.09C124.688 186.09 121.181 174.364 120.981 168.885C120.78 163.439 136.344 155.822 142.489 157.793Z" fill="url(#paint102_radial)"/>
<path d="M94.0615 130.699C94.0615 130.699 104.916 115.097 127.427 117.001L145.028 159.13C145.028 159.13 127.126 162.003 120.814 173.128L94.0615 130.699Z" fill="url(#paint103_radial)"/>
<path d="M129.33 164.909C136.645 160.499 145.028 159.129 145.028 159.129L127.427 117.001C118.743 116.266 111.829 118.136 106.552 120.709C106.619 120.709 119.344 117.669 126.391 118.771L142.523 157.793C142.489 157.793 134.373 160.065 129.33 164.909Z" fill="url(#paint104_linear)"/>
<path d="M89.2522 98.3253C86.6471 99.6951 83.541 106.744 85.2777 117.803C86.5135 125.62 92.9928 135.075 96.3994 134.541C100.775 133.839 102.177 124.251 100.107 111.622C98.4367 101.499 91.8572 96.9555 89.2522 98.3253Z" fill="url(#paint105_radial)"/>
<path d="M100.107 111.622C98.4367 101.465 91.8572 96.9217 89.2522 98.2915C88.7178 98.5588 88.1834 99.0599 87.649 99.7949C87.649 99.7949 89.3858 97.5899 91.9908 99.394C94.5959 101.165 99.0045 105.641 100.006 116.834C100.942 126.89 99.2383 132.402 98.0026 133.772C101.109 131.166 101.877 122.513 100.107 111.622Z" fill="url(#paint106_linear)"/>
<path d="M87.649 101.766C85.4446 102.935 82.8062 108.882 84.2757 118.27C85.3111 124.885 90.7884 132.903 93.6941 132.435C97.4013 131.868 98.5703 123.716 96.8336 113.025C95.4308 104.439 89.8533 100.597 87.649 101.766Z" fill="url(#paint107_radial)"/>
<path d="M153.645 159.296L149.303 160.365L150.872 188.997L154.546 216.76L158.32 216.159L153.645 159.296Z" fill="#020103"/>
<path d="M150.872 188.997L156.016 188.329L153.645 159.296L149.303 160.365L150.872 188.997Z" fill="#100A17"/>
<path d="M154.546 216.76L155.648 216.927L159.189 216.559L158.32 216.159L154.546 216.76Z" fill="url(#paint108_linear)"/>
<path d="M153.644 159.296L158.32 216.159L159.189 216.559L158.153 195.545L156.851 180.277L154.513 159.564L153.644 159.296Z" fill="url(#paint109_linear)"/>
<path d="M155.815 178.64C155.815 178.64 325.914 163.439 332.794 163.272C341.845 163.072 366.56 164.141 366.86 165.644C367.161 167.148 341.678 175.567 333.262 176.201C324.812 176.836 157.252 195.545 157.252 195.545L155.815 178.64Z" fill="url(#paint110_linear)"/>
<path d="M339.975 167.949L158.587 186.024C158.086 186.057 157.719 186.525 157.752 187.026C157.786 187.494 158.187 187.861 158.654 187.861C158.688 187.861 158.721 187.861 158.754 187.861L340.142 169.787C340.643 169.753 341.01 169.286 340.977 168.784C340.943 168.25 340.476 167.882 339.975 167.949Z" fill="url(#paint111_linear)"/>
<defs>
<linearGradient id="paint0_linear" x1="18.1605" y1="276.426" x2="123.396" y2="230.06" gradientUnits="userSpaceOnUse">
<stop stop-color="#3E2E54"/>
<stop offset="1" stop-color="#998FA6"/>
</linearGradient>
<radialGradient id="paint1_radial" cx="0" cy="0" r="1" gradientUnits="userSpaceOnUse" gradientTransform="translate(241.053 125.662) scale(146.959 147.005)">
<stop offset="0.0309813" stop-color="#1D0F2E"/>
<stop offset="1" stop-color="#08040D"/>
</radialGradient>
<linearGradient id="paint2_linear" x1="273.483" y1="253.112" x2="113.228" y2="152.355" gradientUnits="userSpaceOnUse">
<stop stop-color="#6E5E83"/>
<stop offset="0.6453" stop-color="#9181A7"/>
<stop offset="1" stop-color="#0E0717"/>
</linearGradient>
<radialGradient id="paint3_radial" cx="0" cy="0" r="1" gradientUnits="userSpaceOnUse" gradientTransform="translate(218.829 127.638) rotate(90) scale(11.2755 28.5269)">
<stop offset="0.47545" stop-color="#100A17"/>
<stop offset="1" stop-color="#44325C"/>
</radialGradient>
<linearGradient id="paint4_linear" x1="222.425" y1="137.399" x2="214.503" y2="130.212" gradientUnits="userSpaceOnUse">
<stop stop-color="#6E5E83"/>
<stop offset="0.6453" stop-color="#9181A7"/>
<stop offset="1" stop-color="#0E0717"/>
</linearGradient>
<radialGradient id="paint5_radial" cx="0" cy="0" r="1" gradientUnits="userSpaceOnUse" gradientTransform="translate(184.841 123.459) rotate(90) scale(7.87957 120.202)">
<stop offset="0.47545" stop-color="#100A17"/>
<stop offset="1" stop-color="#44325C"/>
</radialGradient>
<radialGradient id="paint6_radial" cx="0" cy="0" r="1" gradientUnits="userSpaceOnUse" gradientTransform="translate(203.46 102.66) rotate(90) scale(26.3486 197.571)">
<stop offset="0.47545" stop-color="#100A17"/>
<stop offset="1" stop-color="#44325C"/>
</radialGradient>
<linearGradient id="paint7_linear" x1="228.25" y1="104.92" x2="227.994" y2="100.14" gradientUnits="userSpaceOnUse">
<stop stop-color="#6E5E83"/>
<stop offset="0.6453" stop-color="#9181A7"/>
<stop offset="1" stop-color="#0E0717"/>
</linearGradient>
<radialGradient id="paint8_radial" cx="0" cy="0" r="1" gradientUnits="userSpaceOnUse" gradientTransform="translate(219.667 105.058) rotate(90) scale(24.2767 121.499)">
<stop offset="0.47545" stop-color="#100A17"/>
<stop offset="1" stop-color="#44325C"/>
</radialGradient>
<linearGradient id="paint9_linear" x1="229.159" y1="126.539" x2="214.879" y2="115.353" gradientUnits="userSpaceOnUse">
<stop stop-color="#6E5E83"/>
<stop offset="0.6453" stop-color="#9181A7"/>
<stop offset="1" stop-color="#0E0717"/>
</linearGradient>
<radialGradient id="paint10_radial" cx="0" cy="0" r="1" gradientUnits="userSpaceOnUse" gradientTransform="translate(214.921 106.825) rotate(90) scale(12.9665 52.1913)">
<stop offset="0.47545" stop-color="#100A17"/>
<stop offset="1" stop-color="#44325C"/>
</radialGradient>
<linearGradient id="paint11_linear" x1="220.668" y1="114.143" x2="219.978" y2="110.816" gradientUnits="userSpaceOnUse">
<stop stop-color="#6E5E83"/>
<stop offset="0.6453" stop-color="#9181A7"/>
<stop offset="1" stop-color="#0E0717"/>
</linearGradient>
<radialGradient id="paint12_radial" cx="0" cy="0" r="1" gradientUnits="userSpaceOnUse" gradientTransform="translate(213.435 105.98) rotate(90) scale(5.74302 24.7019)">
<stop offset="0.47545" stop-color="#100A17"/>
<stop offset="1" stop-color="#44325C"/>
</radialGradient>
<radialGradient id="paint13_radial" cx="0" cy="0" r="1" gradientUnits="userSpaceOnUse" gradientTransform="translate(227.362 123.844) rotate(90) scale(4.3761 25.6972)">
<stop offset="0.47545" stop-color="#100A17"/>
<stop offset="1" stop-color="#44325C"/>
</radialGradient>
<radialGradient id="paint14_radial" cx="0" cy="0" r="1" gradientUnits="userSpaceOnUse" gradientTransform="translate(229.146 119.434) rotate(90) scale(5.39101 26.0945)">
<stop offset="0.47545" stop-color="#100A17"/>
<stop offset="1" stop-color="#44325C"/>
</radialGradient>
<radialGradient id="paint15_radial" cx="0" cy="0" r="1" gradientUnits="userSpaceOnUse" gradientTransform="translate(230.468 112.833) rotate(90) scale(6.81842 25.1835)">
<stop offset="0.47545" stop-color="#100A17"/>
<stop offset="1" stop-color="#44325C"/>
</radialGradient>
<radialGradient id="paint16_radial" cx="0" cy="0" r="1" gradientUnits="userSpaceOnUse" gradientTransform="translate(228.752 106.439) rotate(90) scale(6.87818 18.4452)">
<stop offset="0.47545" stop-color="#100A17"/>
<stop offset="1" stop-color="#44325C"/>
</radialGradient>
<radialGradient id="paint17_radial" cx="0" cy="0" r="1" gradientUnits="userSpaceOnUse" gradientTransform="translate(221.293 93.3191) rotate(90) scale(19.0074 34.9798)">
<stop offset="0.47545" stop-color="#100A17"/>
<stop offset="1" stop-color="#44325C"/>
</radialGradient>
<linearGradient id="paint18_linear" x1="225.637" y1="107.65" x2="215.246" y2="101.938" gradientUnits="userSpaceOnUse">
<stop stop-color="#6E5E83"/>
<stop offset="0.6453" stop-color="#9181A7"/>
<stop offset="1" stop-color="#0E0717"/>
</linearGradient>
<radialGradient id="paint19_radial" cx="0" cy="0" r="1" gradientUnits="userSpaceOnUse" gradientTransform="translate(118.019 249.044) rotate(90) scale(36.9917 126.92)">
<stop offset="0.47545" stop-color="#100A17"/>
<stop offset="1" stop-color="#44325C"/>
</radialGradient>
<radialGradient id="paint20_radial" cx="0" cy="0" r="1" gradientUnits="userSpaceOnUse" gradientTransform="translate(103.422 153.414) rotate(90) scale(178.949 535.427)">
<stop offset="0.47545" stop-color="#100A17"/>
<stop offset="1" stop-color="#44325C"/>
</radialGradient>
<radialGradient id="paint21_radial" cx="0" cy="0" r="1" gradientUnits="userSpaceOnUse" gradientTransform="translate(116.97 209.776) rotate(90) scale(37.8619 195.952)">
<stop offset="0.47545" stop-color="#100A17"/>
<stop offset="1" stop-color="#44325C"/>
</radialGradient>
<linearGradient id="paint22_linear" x1="123.711" y1="232.817" x2="105.387" y2="204.986" gradientUnits="userSpaceOnUse">
<stop stop-color="#6E5E83"/>
<stop offset="0.6453" stop-color="#9181A7"/>
<stop offset="1" stop-color="#0E0717"/>
</linearGradient>
<radialGradient id="paint23_radial" cx="0" cy="0" r="1" gradientUnits="userSpaceOnUse" gradientTransform="translate(142.443 190.037) rotate(90) scale(60.8126 168.318)">
<stop offset="0.47545" stop-color="#100A17"/>
<stop offset="1" stop-color="#44325C"/>
</radialGradient>
<radialGradient id="paint24_radial" cx="0" cy="0" r="1" gradientUnits="userSpaceOnUse" gradientTransform="translate(107.817 248.059) rotate(90) scale(26.6102 175.379)">
<stop offset="0.47545" stop-color="#100A17"/>
<stop offset="1" stop-color="#44325C"/>
</radialGradient>
<linearGradient id="paint25_linear" x1="121.253" y1="256.193" x2="118.301" y2="242.128" gradientUnits="userSpaceOnUse">
<stop stop-color="#6E5E83"/>
<stop offset="0.6453" stop-color="#9181A7"/>
<stop offset="1" stop-color="#0E0717"/>
</linearGradient>
<radialGradient id="paint26_radial" cx="0" cy="0" r="1" gradientUnits="userSpaceOnUse" gradientTransform="translate(64.9978 325.601) rotate(90) scale(36.6721 258.666)">
<stop offset="0.47545" stop-color="#100A17"/>
<stop offset="1" stop-color="#44325C"/>
</radialGradient>
<radialGradient id="paint27_radial" cx="0" cy="0" r="1" gradientUnits="userSpaceOnUse" gradientTransform="translate(64.8836 352.084) rotate(90) scale(14.1109 270.389)">
<stop offset="0.47545" stop-color="#100A17"/>
<stop offset="1" stop-color="#44325C"/>
</radialGradient>
<radialGradient id="paint28_radial" cx="0" cy="0" r="1" gradientUnits="userSpaceOnUse" gradientTransform="translate(65.3993 333.094) rotate(90) scale(21.6167 91.5071)">
<stop offset="0.47545" stop-color="#100A17"/>
<stop offset="1" stop-color="#44325C"/>
</radialGradient>
<linearGradient id="paint29_linear" x1="76.0168" y1="342.672" x2="67.683" y2="335.401" gradientUnits="userSpaceOnUse">
<stop stop-color="#6E5E83"/>
<stop offset="0.6453" stop-color="#9181A7"/>
<stop offset="1" stop-color="#0E0717"/>
</linearGradient>
<radialGradient id="paint30_radial" cx="0" cy="0" r="1" gradientUnits="userSpaceOnUse" gradientTransform="translate(52.3773 334.319) rotate(90) scale(27.8994 147.807)">
<stop offset="0.47545" stop-color="#100A17"/>
<stop offset="1" stop-color="#44325C"/>
</radialGradient>
<radialGradient id="paint31_radial" cx="0" cy="0" r="1" gradientUnits="userSpaceOnUse" gradientTransform="translate(84.659 342.516) rotate(90) scale(18.8098 82.3693)">
<stop offset="0.47545" stop-color="#100A17"/>
<stop offset="1" stop-color="#44325C"/>
</radialGradient>
<linearGradient id="paint32_linear" x1="94.9427" y1="350.618" x2="90.5469" y2="337.885" gradientUnits="userSpaceOnUse">
<stop stop-color="#6E5E83"/>
<stop offset="0.6453" stop-color="#9181A7"/>
<stop offset="1" stop-color="#0E0717"/>
</linearGradient>
<radialGradient id="paint33_radial" cx="0" cy="0" r="1" gradientUnits="userSpaceOnUse" gradientTransform="translate(73.1175 262.157) rotate(90) scale(71.5348 272.56)">
<stop offset="0.47545" stop-color="#100A17"/>
<stop offset="1" stop-color="#44325C"/>
</radialGradient>
<linearGradient id="paint34_linear" x1="107.799" y1="320.633" x2="60.1531" y2="255.026" gradientUnits="userSpaceOnUse">
<stop stop-color="#6E5E83"/>
<stop offset="0.6453" stop-color="#9181A7"/>
<stop offset="1" stop-color="#0E0717"/>
</linearGradient>
<radialGradient id="paint35_radial" cx="0" cy="0" r="1" gradientUnits="userSpaceOnUse" gradientTransform="translate(87.9525 272.322) rotate(90) scale(63.1832 235.865)">
<stop offset="0.47545" stop-color="#100A17"/>
<stop offset="1" stop-color="#44325C"/>
</radialGradient>
<radialGradient id="paint36_radial" cx="0" cy="0" r="1" gradientUnits="userSpaceOnUse" gradientTransform="translate(82.397 283.787) rotate(90) scale(37.918 140.281)">
<stop offset="0.47545" stop-color="#100A17"/>
<stop offset="1" stop-color="#44325C"/>
</radialGradient>
<radialGradient id="paint37_radial" cx="0" cy="0" r="1" gradientUnits="userSpaceOnUse" gradientTransform="translate(166.925 162.861) rotate(90) scale(183.383 432.856)">
<stop offset="0.47545" stop-color="#100A17"/>
<stop offset="1" stop-color="#44325C"/>
</radialGradient>
<radialGradient id="paint38_radial" cx="0" cy="0" r="1" gradientUnits="userSpaceOnUse" gradientTransform="translate(157.475 192.752) rotate(90) scale(46.1331 189.356)">
<stop offset="0.47545" stop-color="#100A17"/>
<stop offset="1" stop-color="#44325C"/>
</radialGradient>
<linearGradient id="paint39_linear" x1="171.981" y1="236.156" x2="156.07" y2="218.309" gradientUnits="userSpaceOnUse">
<stop stop-color="#6E5E83"/>
<stop offset="0.6453" stop-color="#9181A7"/>
<stop offset="1" stop-color="#0E0717"/>
</linearGradient>
<linearGradient id="paint40_linear" x1="150.178" y1="219.537" x2="132.402" y2="205.333" gradientUnits="userSpaceOnUse">
<stop stop-color="#6E5E83"/>
<stop offset="0.6453" stop-color="#9181A7"/>
<stop offset="1" stop-color="#0E0717"/>
</linearGradient>
<radialGradient id="paint41_radial" cx="0" cy="0" r="1" gradientUnits="userSpaceOnUse" gradientTransform="translate(173.657 165.994) rotate(90) scale(65.0488 272.168)">
<stop offset="0.47545" stop-color="#100A17"/>
<stop offset="1" stop-color="#44325C"/>
</radialGradient>
<linearGradient id="paint42_linear" x1="207.905" y1="225.141" x2="180.841" y2="173.042" gradientUnits="userSpaceOnUse">
<stop stop-color="#6E5E83"/>
<stop offset="0.6453" stop-color="#9181A7"/>
<stop offset="1" stop-color="#0E0717"/>
</linearGradient>
<radialGradient id="paint43_radial" cx="0" cy="0" r="1" gradientUnits="userSpaceOnUse" gradientTransform="translate(214.467 339.489) rotate(90) scale(45.7503 314.381)">
<stop offset="0.47545" stop-color="#100A17"/>
<stop offset="1" stop-color="#44325C"/>
</radialGradient>
<radialGradient id="paint44_radial" cx="0" cy="0" r="1" gradientUnits="userSpaceOnUse" gradientTransform="translate(214.652 375.244) rotate(90) scale(10.3907 312.402)">
<stop offset="0.47545" stop-color="#100A17"/>
<stop offset="1" stop-color="#44325C"/>
</radialGradient>
<radialGradient id="paint45_radial" cx="0" cy="0" r="1" gradientUnits="userSpaceOnUse" gradientTransform="translate(234.177 359.583) rotate(90) scale(21.4808 124.033)">
<stop offset="0.47545" stop-color="#100A17"/>
<stop offset="1" stop-color="#44325C"/>
</radialGradient>
<linearGradient id="paint46_linear" x1="249.734" y1="370.423" x2="244.378" y2="353.171" gradientUnits="userSpaceOnUse">
<stop stop-color="#6E5E83"/>
<stop offset="0.6453" stop-color="#9181A7"/>
<stop offset="1" stop-color="#0E0717"/>
</linearGradient>
<radialGradient id="paint47_radial" cx="0" cy="0" r="1" gradientUnits="userSpaceOnUse" gradientTransform="translate(206.836 348.137) rotate(90) scale(28.672 129.106)">
<stop offset="0.47545" stop-color="#100A17"/>
<stop offset="1" stop-color="#44325C"/>
</radialGradient>
<linearGradient id="paint48_linear" x1="221.892" y1="357.339" x2="214.24" y2="346.023" gradientUnits="userSpaceOnUse">
<stop stop-color="#6E5E83"/>
<stop offset="0.6453" stop-color="#9181A7"/>
<stop offset="1" stop-color="#0E0717"/>
</linearGradient>
<radialGradient id="paint49_radial" cx="0" cy="0" r="1" gradientUnits="userSpaceOnUse" gradientTransform="translate(187.93 353.711) rotate(90) scale(24.452 86.7186)">
<stop offset="0.47545" stop-color="#100A17"/>
<stop offset="1" stop-color="#44325C"/>
</radialGradient>
<linearGradient id="paint50_linear" x1="196.092" y1="367.482" x2="185.332" y2="350.405" gradientUnits="userSpaceOnUse">
<stop stop-color="#6E5E83"/>
<stop offset="0.6453" stop-color="#9181A7"/>
<stop offset="1" stop-color="#0E0717"/>
</linearGradient>
<radialGradient id="paint51_radial" cx="0" cy="0" r="1" gradientUnits="userSpaceOnUse" gradientTransform="translate(182.373 272.357) rotate(90) scale(79.319 100.479)">
<stop offset="0.47545" stop-color="#100A17"/>
<stop offset="1" stop-color="#44325C"/>
</radialGradient>
<linearGradient id="paint52_linear" x1="195.158" y1="340.713" x2="152.376" y2="322.113" gradientUnits="userSpaceOnUse">
<stop stop-color="#6E5E83"/>
<stop offset="0.6453" stop-color="#9181A7"/>
<stop offset="1" stop-color="#0E0717"/>
</linearGradient>
<radialGradient id="paint53_radial" cx="0" cy="0" r="1" gradientUnits="userSpaceOnUse" gradientTransform="translate(203.893 270.652) rotate(90) scale(79.2904 106.131)">
<stop offset="0.47545" stop-color="#100A17"/>
<stop offset="1" stop-color="#44325C"/>
</radialGradient>
<linearGradient id="paint54_linear" x1="217.293" y1="339.026" x2="174.097" y2="319.972" gradientUnits="userSpaceOnUse">
<stop stop-color="#6E5E83"/>
<stop offset="0.6453" stop-color="#9181A7"/>
<stop offset="1" stop-color="#0E0717"/>
</linearGradient>
<radialGradient id="paint55_radial" cx="0" cy="0" r="1" gradientUnits="userSpaceOnUse" gradientTransform="translate(191.587 294.614) rotate(90) scale(37.5525 63.8737)">
<stop offset="0.47545" stop-color="#100A17"/>
<stop offset="1" stop-color="#44325C"/>
</radialGradient>
<radialGradient id="paint56_radial" cx="0" cy="0" r="1" gradientUnits="userSpaceOnUse" gradientTransform="translate(188.993 234.851) rotate(90) scale(26.1592 145.151)">
<stop offset="0.47545" stop-color="#100A17"/>
<stop offset="1" stop-color="#44325C"/>
</radialGradient>
<linearGradient id="paint57_linear" x1="200.283" y1="257.406" x2="182.521" y2="230.575" gradientUnits="userSpaceOnUse">
<stop stop-color="#6E5E83"/>
<stop offset="0.6453" stop-color="#9181A7"/>
<stop offset="1" stop-color="#0E0717"/>
</linearGradient>
<radialGradient id="paint58_radial" cx="0" cy="0" r="1" gradientUnits="userSpaceOnUse" gradientTransform="translate(207.796 221.883) rotate(90) scale(48.9113 99.7332)">
<stop offset="0.47545" stop-color="#100A17"/>
<stop offset="1" stop-color="#44325C"/>
</radialGradient>
<linearGradient id="paint59_linear" x1="209.782" y1="262.222" x2="185.877" y2="252.618" gradientUnits="userSpaceOnUse">
<stop stop-color="#6E5E83"/>
<stop offset="0.6453" stop-color="#9181A7"/>
<stop offset="1" stop-color="#0E0717"/>
</linearGradient>
<radialGradient id="paint60_radial" cx="0" cy="0" r="1" gradientUnits="userSpaceOnUse" gradientTransform="translate(209.897 224.854) rotate(90) scale(40.8956 90.1381)">
<stop offset="0.47545" stop-color="#100A17"/>
<stop offset="1" stop-color="#44325C"/>
</radialGradient>
<radialGradient id="paint61_radial" cx="0" cy="0" r="1" gradientUnits="userSpaceOnUse" gradientTransform="translate(111.208 157.011) rotate(90) scale(49.2595 137.766)">
<stop offset="0.47545" stop-color="#100A17"/>
<stop offset="1" stop-color="#44325C"/>
</radialGradient>
<linearGradient id="paint62_linear" x1="120.278" y1="200.334" x2="88.8626" y2="175.009" gradientUnits="userSpaceOnUse">
<stop stop-color="#6E5E83"/>
<stop offset="0.6453" stop-color="#9181A7"/>
<stop offset="1" stop-color="#0E0717"/>
</linearGradient>
<radialGradient id="paint63_radial" cx="0" cy="0" r="1" gradientUnits="userSpaceOnUse" gradientTransform="translate(142.626 153.559) rotate(90) scale(59.521 179.239)">
<stop offset="0.47545" stop-color="#100A17"/>
<stop offset="1" stop-color="#44325C"/>
</radialGradient>
<linearGradient id="paint64_linear" x1="159.5" y1="206.831" x2="125.519" y2="168.1" gradientUnits="userSpaceOnUse">
<stop stop-color="#6E5E83"/>
<stop offset="0.6453" stop-color="#9181A7"/>
<stop offset="1" stop-color="#0E0717"/>
</linearGradient>
<radialGradient id="paint65_radial" cx="0" cy="0" r="1" gradientUnits="userSpaceOnUse" gradientTransform="translate(168.359 153.389) rotate(90) scale(49.8972 178.786)">
<stop offset="0.47545" stop-color="#100A17"/>
<stop offset="1" stop-color="#44325C"/>
</radialGradient>
<linearGradient id="paint66_linear" x1="190.256" y1="197.512" x2="159.064" y2="165.012" gradientUnits="userSpaceOnUse">
<stop stop-color="#6E5E83"/>
<stop offset="0.6453" stop-color="#9181A7"/>
<stop offset="1" stop-color="#0E0717"/>
</linearGradient>
<radialGradient id="paint67_radial" cx="0" cy="0" r="1" gradientUnits="userSpaceOnUse" gradientTransform="translate(168.964 1.35135) rotate(90) scale(54.2201 267.67)">
<stop offset="0.47545" stop-color="#100A17"/>
<stop offset="1" stop-color="#44325C"/>
</radialGradient>
<linearGradient id="paint68_linear" x1="200.941" y1="23.9225" x2="184.166" y2="-6.65371" gradientUnits="userSpaceOnUse">
<stop stop-color="#6E5E83"/>
<stop offset="0.6453" stop-color="#9181A7"/>
<stop offset="1" stop-color="#0E0717"/>
</linearGradient>
<radialGradient id="paint69_radial" cx="0" cy="0" r="1" gradientUnits="userSpaceOnUse" gradientTransform="translate(188.463 10.85) rotate(90) scale(57.2797 113.105)">
<stop offset="0.47545" stop-color="#100A17"/>
<stop offset="1" stop-color="#44325C"/>
</radialGradient>
<linearGradient id="paint70_linear" x1="201.979" y1="29.5893" x2="185.309" y2="14.6144" gradientUnits="userSpaceOnUse">
<stop stop-color="#6E5E83"/>
<stop offset="0.6453" stop-color="#9181A7"/>
<stop offset="1" stop-color="#0E0717"/>
</linearGradient>
<linearGradient id="paint71_linear" x1="178.393" y1="59.9191" x2="178.378" y2="59.9522" gradientUnits="userSpaceOnUse">
<stop stop-color="#FFF29C"/>
<stop offset="0.6453" stop-color="#FC8012"/>
<stop offset="1" stop-color="#590808"/>
</linearGradient>
<linearGradient id="paint72_linear" x1="200.604" y1="63.7339" x2="175.612" y2="40.3146" gradientUnits="userSpaceOnUse">
<stop stop-color="#6E5E83"/>
<stop offset="0.6453" stop-color="#9181A7"/>
<stop offset="1" stop-color="#0E0717"/>
</linearGradient>
<radialGradient id="paint73_radial" cx="0" cy="0" r="1" gradientUnits="userSpaceOnUse" gradientTransform="translate(179.704 25.1627) rotate(90) scale(12.1761 46.1357)">
<stop offset="0.47545" stop-color="#100A17"/>
<stop offset="1" stop-color="#44325C"/>
</radialGradient>
<linearGradient id="paint74_linear" x1="185.331" y1="35.347" x2="176.639" y2="27.3224" gradientUnits="userSpaceOnUse">
<stop stop-color="#6E5E83"/>
<stop offset="0.6453" stop-color="#9181A7"/>
<stop offset="1" stop-color="#0E0717"/>
</linearGradient>
<radialGradient id="paint75_radial" cx="0" cy="0" r="1" gradientUnits="userSpaceOnUse" gradientTransform="translate(146.917 40.1427) rotate(90) scale(133.464 379.884)">
<stop offset="0.47545" stop-color="#100A17"/>
<stop offset="1" stop-color="#44325C"/>
</radialGradient>
<linearGradient id="paint76_linear" x1="191.709" y1="153.47" x2="123.952" y2="118.897" gradientUnits="userSpaceOnUse">
<stop stop-color="#6E5E83"/>
<stop offset="0.6453" stop-color="#9181A7"/>
<stop offset="1" stop-color="#0E0717"/>
</linearGradient>
<linearGradient id="paint77_linear" x1="150.743" y1="150.04" x2="128.651" y2="145.353" gradientUnits="userSpaceOnUse">
<stop stop-color="#6E5E83"/>
<stop offset="0.6453" stop-color="#9181A7"/>
<stop offset="1" stop-color="#0E0717"/>
</linearGradient>
<radialGradient id="paint78_radial" cx="0" cy="0" r="1" gradientUnits="userSpaceOnUse" gradientTransform="translate(140.319 104.348) rotate(90) scale(7.38483 59.0419)">
<stop offset="0.47545" stop-color="#100A17"/>
<stop offset="1" stop-color="#44325C"/>
</radialGradient>
<radialGradient id="paint79_radial" cx="0" cy="0" r="1" gradientUnits="userSpaceOnUse" gradientTransform="translate(138.516 131.643) rotate(90) scale(7.38487 59.0417)">
<stop offset="0.47545" stop-color="#100A17"/>
<stop offset="1" stop-color="#44325C"/>
</radialGradient>
<radialGradient id="paint80_radial" cx="0" cy="0" r="1" gradientUnits="userSpaceOnUse" gradientTransform="translate(176.579 65.7795) rotate(90) scale(9.61406 22.7238)">
<stop offset="0.47545" stop-color="#100A17"/>
<stop offset="1" stop-color="#44325C"/>
</radialGradient>
<radialGradient id="paint81_radial" cx="0" cy="0" r="1" gradientUnits="userSpaceOnUse" gradientTransform="translate(136.773 183.536) rotate(90) scale(11.1805 210.602)">
<stop offset="0.47545" stop-color="#100A17"/>
<stop offset="1" stop-color="#44325C"/>
</radialGradient>
<radialGradient id="paint82_radial" cx="0" cy="0" r="1" gradientUnits="userSpaceOnUse" gradientTransform="translate(115.618 184.799) rotate(90) scale(11.9572 56.0659)">
<stop offset="0.47545" stop-color="#100A17"/>
<stop offset="1" stop-color="#44325C"/>
</radialGradient>
<radialGradient id="paint83_radial" cx="0" cy="0" r="1" gradientUnits="userSpaceOnUse" gradientTransform="translate(107.446 106.264) rotate(90) scale(15.2617 146.027)">
<stop offset="0.47545" stop-color="#100A17"/>
<stop offset="1" stop-color="#44325C"/>
</radialGradient>
<linearGradient id="paint84_linear" x1="126.02" y1="114.42" x2="123.377" y2="100.717" gradientUnits="userSpaceOnUse">
<stop stop-color="#6E5E83"/>
<stop offset="0.6453" stop-color="#9181A7"/>
<stop offset="1" stop-color="#0E0717"/>
</linearGradient>
<radialGradient id="paint85_radial" cx="0" cy="0" r="1" gradientUnits="userSpaceOnUse" gradientTransform="translate(109.769 63.0615) rotate(90) scale(41.7371 160.192)">
<stop offset="0.47545" stop-color="#100A17"/>
<stop offset="1" stop-color="#44325C"/>
</radialGradient>
<radialGradient id="paint86_radial" cx="0" cy="0" r="1" gradientUnits="userSpaceOnUse" gradientTransform="translate(130.279 69.885) rotate(90) scale(43.3525 185.429)">
<stop offset="0.47545" stop-color="#100A17"/>
<stop offset="1" stop-color="#44325C"/>
</radialGradient>
<linearGradient id="paint87_linear" x1="139.493" y1="111.813" x2="134.075" y2="94.2807" gradientUnits="userSpaceOnUse">
<stop stop-color="#6E5E83"/>
<stop offset="0.6453" stop-color="#9181A7"/>
<stop offset="1" stop-color="#0E0717"/>
</linearGradient>
<linearGradient id="paint88_linear" x1="122.27" y1="102.001" x2="108.746" y2="76.2761" gradientUnits="userSpaceOnUse">
<stop stop-color="#6E5E83"/>
<stop offset="0.6453" stop-color="#9181A7"/>
<stop offset="1" stop-color="#0E0717"/>
</linearGradient>
<radialGradient id="paint89_radial" cx="0" cy="0" r="1" gradientUnits="userSpaceOnUse" gradientTransform="translate(119.937 73.272) rotate(90) scale(34.5891 227.335)">
<stop offset="0.47545" stop-color="#100A17"/>
<stop offset="1" stop-color="#44325C"/>
</radialGradient>
<linearGradient id="paint90_linear" x1="147.451" y1="105.759" x2="139.825" y2="83.1968" gradientUnits="userSpaceOnUse">
<stop stop-color="#6E5E83"/>
<stop offset="0.6453" stop-color="#9181A7"/>
<stop offset="1" stop-color="#0E0717"/>
</linearGradient>
<radialGradient id="paint91_radial" cx="0" cy="0" r="1" gradientUnits="userSpaceOnUse" gradientTransform="translate(129.445 52.941) rotate(90) scale(42.5028 286.871)">
<stop offset="0.47545" stop-color="#100A17"/>
<stop offset="1" stop-color="#44325C"/>
</radialGradient>
<linearGradient id="paint92_linear" x1="165.591" y1="93.0514" x2="159.966" y2="65.932" gradientUnits="userSpaceOnUse">
<stop stop-color="#6E5E83"/>
<stop offset="0.6453" stop-color="#9181A7"/>
<stop offset="1" stop-color="#0E0717"/>
</linearGradient>
<radialGradient id="paint93_radial" cx="0" cy="0" r="1" gradientUnits="userSpaceOnUse" gradientTransform="translate(137.99 35.3688) rotate(90) scale(47.7355 326.885)">
<stop offset="0.47545" stop-color="#100A17"/>
<stop offset="1" stop-color="#44325C"/>
</radialGradient>
<linearGradient id="paint94_linear" x1="176.388" y1="76.4145" x2="141.247" y2="41.6964" gradientUnits="userSpaceOnUse">
<stop stop-color="#6E5E83"/>
<stop offset="0.6453" stop-color="#9181A7"/>
<stop offset="1" stop-color="#0E0717"/>
</linearGradient>
<linearGradient id="paint95_linear" x1="144.785" y1="66.9022" x2="141.035" y2="48.7618" gradientUnits="userSpaceOnUse">
<stop stop-color="#6E5E83"/>
<stop offset="0.6453" stop-color="#9181A7"/>
<stop offset="1" stop-color="#0E0717"/>
</linearGradient>
<radialGradient id="paint96_radial" cx="0" cy="0" r="1" gradientUnits="userSpaceOnUse" gradientTransform="translate(133.363 191.657) rotate(90) scale(7.62586 28.2232)">
<stop offset="0.47545" stop-color="#100A17"/>
<stop offset="1" stop-color="#44325C"/>
</radialGradient>
<radialGradient id="paint97_radial" cx="0" cy="0" r="1" gradientUnits="userSpaceOnUse" gradientTransform="translate(126.565 193.412) rotate(90) scale(6.66776 23.6153)">
<stop offset="0.47545" stop-color="#100A17"/>
<stop offset="1" stop-color="#44325C"/>
</radialGradient>
<radialGradient id="paint98_radial" cx="0" cy="0" r="1" gradientUnits="userSpaceOnUse" gradientTransform="translate(140.662 188.819) rotate(90) scale(7.70459 32.2562)">
<stop offset="0.47545" stop-color="#100A17"/>
<stop offset="1" stop-color="#44325C"/>
</radialGradient>
<radialGradient id="paint99_radial" cx="0" cy="0" r="1" gradientUnits="userSpaceOnUse" gradientTransform="translate(150.281 186.681) rotate(90) scale(7.70455 32.2566)">
<stop offset="0.47545" stop-color="#100A17"/>
<stop offset="1" stop-color="#44325C"/>
</radialGradient>
<radialGradient id="paint100_radial" cx="0" cy="0" r="1" gradientUnits="userSpaceOnUse" gradientTransform="translate(137.61 173.652) rotate(90) scale(19.6165 120.452)">
<stop offset="0.47545" stop-color="#100A17"/>
<stop offset="1" stop-color="#44325C"/>
</radialGradient>
<linearGradient id="paint101_linear" x1="152.945" y1="190.715" x2="142.653" y2="167.887" gradientUnits="userSpaceOnUse">
<stop stop-color="#6E5E83"/>
<stop offset="0.6453" stop-color="#9181A7"/>
<stop offset="1" stop-color="#0E0717"/>
</linearGradient>
<radialGradient id="paint102_radial" cx="0" cy="0" r="1" gradientUnits="userSpaceOnUse" gradientTransform="translate(137.422 158.162) rotate(90) scale(27.5934 148.292)">
<stop offset="0.47545" stop-color="#100A17"/>
<stop offset="1" stop-color="#44325C"/>
</radialGradient>
<radialGradient id="paint103_radial" cx="0" cy="0" r="1" gradientUnits="userSpaceOnUse" gradientTransform="translate(119.613 118.191) rotate(90) scale(54.2779 230.429)">
<stop offset="0.47545" stop-color="#100A17"/>
<stop offset="1" stop-color="#44325C"/>
</radialGradient>
<linearGradient id="paint104_linear" x1="147.976" y1="157.96" x2="114.853" y2="115.3" gradientUnits="userSpaceOnUse">
<stop stop-color="#6E5E83"/>
<stop offset="0.6453" stop-color="#9181A7"/>
<stop offset="1" stop-color="#0E0717"/>
</linearGradient>
<radialGradient id="paint105_radial" cx="0" cy="0" r="1" gradientUnits="userSpaceOnUse" gradientTransform="translate(92.9318 98.9627) rotate(90) scale(35.1729 73.57)">
<stop offset="0.47545" stop-color="#100A17"/>
<stop offset="1" stop-color="#44325C"/>
</radialGradient>
<linearGradient id="paint106_linear" x1="102.067" y1="128.608" x2="79.5939" y2="115.05" gradientUnits="userSpaceOnUse">
<stop stop-color="#6E5E83"/>
<stop offset="0.6453" stop-color="#9181A7"/>
<stop offset="1" stop-color="#0E0717"/>
</linearGradient>
<radialGradient id="paint107_radial" cx="0" cy="0" r="1" gradientUnits="userSpaceOnUse" gradientTransform="translate(90.7547 102.303) rotate(90) scale(29.7908 62.2643)">
<stop offset="0.47545" stop-color="#100A17"/>
<stop offset="1" stop-color="#44325C"/>
</radialGradient>
<linearGradient id="paint108_linear" x1="155" y1="217.128" x2="160.716" y2="215.654" gradientUnits="userSpaceOnUse">
<stop stop-color="#590808"/>
<stop offset="1"/>
</linearGradient>
<linearGradient id="paint109_linear" x1="159.613" y1="208.281" x2="147.224" y2="206.351" gradientUnits="userSpaceOnUse">
<stop stop-color="#6E5E83"/>
<stop offset="0.6453" stop-color="#9181A7"/>
<stop offset="1" stop-color="#0E0717"/>
</linearGradient>
<linearGradient id="paint110_linear" x1="216.177" y1="191.813" x2="222.878" y2="157.315" gradientUnits="userSpaceOnUse">
<stop stop-color="#65557A"/>
<stop offset="1" stop-color="#C3ACDE"/>
</linearGradient>
<linearGradient id="paint111_linear" x1="341.424" y1="168.063" x2="163.049" y2="185.956" gradientUnits="userSpaceOnUse">
<stop stop-color="#AF9DC9"/>
<stop offset="1" stop-color="#705D8C"/>
</linearGradient>
</defs>
</svg>
