<svg width="20" height="20" viewBox="0 0 20 20" fill="none" xmlns="http://www.w3.org/2000/svg">
<path d="M17.125 8.34653L15.948 8.25331C15.8282 7.84469 15.6675 7.45359 15.4705 7.08472L16.251 6.18797C16.5787 5.81144 16.5592 5.2455 16.2062 4.8925L15.1573 3.84362C14.8068 3.49319 14.2459 3.471 13.8689 3.79269L12.9706 4.55916C12.6037 4.35837 12.2141 4.19378 11.8068 4.06984L11.7247 2.88431C11.6902 2.38634 11.2761 2 10.7769 2H9.29359C8.798 2 8.38569 2.38097 8.34656 2.875L8.25334 4.05197C7.82425 4.17778 7.41441 4.34853 7.02941 4.55916L6.13106 3.79269C5.75406 3.47103 5.19313 3.49319 4.84269 3.84362L3.79378 4.89253C3.44081 5.2455 3.42122 5.81144 3.74894 6.188L4.52944 7.08475C4.33247 7.45363 4.17175 7.84472 4.05194 8.25334L2.875 8.34653C2.38097 8.38566 2 8.798 2 9.29356V10.7769C2 11.2761 2.38634 11.6901 2.88431 11.7246L4.06984 11.8068C4.19378 12.2141 4.35837 12.6036 4.55916 12.9706L3.79269 13.8689C3.47103 14.2459 3.49322 14.8069 3.84362 15.1573L4.89253 16.2062C5.2455 16.5592 5.81144 16.5787 6.18797 16.251L7.08472 15.4705C7.45359 15.6675 7.84469 15.8282 8.25331 15.948L8.34653 17.125C8.38566 17.619 8.798 18 9.29356 18H10.7769C11.2761 18 11.6901 17.6137 11.7246 17.1157L11.8068 15.9302C12.1937 15.8124 12.5645 15.6578 12.9152 15.4706L13.812 16.2511C14.1885 16.5788 14.7545 16.5592 15.1074 16.2062L16.1563 15.1573C16.5068 14.8069 16.5289 14.246 16.2073 13.869L15.4408 12.9706C15.6416 12.6037 15.8062 12.2141 15.9301 11.8068L17.1157 11.7247C17.6137 11.6902 18 11.2761 18 10.7769V9.29359C18 8.798 17.619 8.38566 17.125 8.34653ZM10 12.9703C8.35956 12.9703 7.02972 11.6404 7.02972 10C7.02972 8.35956 8.35956 7.02969 10 7.02969C11.6404 7.02969 12.9703 8.35953 12.9703 10C12.9703 11.6405 11.6404 12.9703 10 12.9703Z" fill="#CDD2DF"/>
<path d="M9.2936 17.3402C9.14326 17.3402 9.01617 17.2228 9.00429 17.0729L8.91104 15.896C8.88942 15.6231 8.7016 15.3919 8.43895 15.3149C8.07835 15.2092 7.72729 15.0657 7.39551 14.8886C7.29773 14.8363 7.19095 14.8107 7.08482 14.8107C6.92892 14.8107 6.77438 14.8659 6.65151 14.9729L5.75479 15.7534C5.68707 15.8123 5.61388 15.8247 5.56445 15.8247C5.51948 15.8247 5.43304 15.8136 5.35907 15.7397L4.31017 14.6907C4.20385 14.5844 4.19701 14.4116 4.29463 14.2972L5.0611 13.3988C5.23882 13.1905 5.26942 12.8941 5.13798 12.6539C4.95754 12.3241 4.81057 11.9745 4.70107 11.6147C4.62142 11.3529 4.38845 11.1675 4.11545 11.1485L2.92992 11.0664C2.77845 11.0559 2.65979 10.9287 2.65979 10.7769V9.2935C2.65979 9.14315 2.7772 9.01606 2.9271 9.00418L4.10407 8.91093C4.37692 8.88931 4.60807 8.7015 4.6851 8.43884C4.79082 8.07825 4.93429 7.72718 5.11148 7.3954C5.24042 7.15393 5.20688 6.8579 5.02717 6.6514L4.24667 5.75468C4.14698 5.64015 4.15301 5.46631 4.26038 5.35893L5.30926 4.31006C5.3832 4.23612 5.4697 4.22506 5.51463 4.22506C5.56335 4.22506 5.63554 4.23709 5.70282 4.2945L6.6012 5.06096C6.72338 5.16522 6.87588 5.21884 7.02957 5.21884C7.13788 5.21884 7.24682 5.19218 7.34613 5.13784C7.69223 4.94847 8.05992 4.79609 8.43898 4.68496C8.70163 4.60796 8.88945 4.37678 8.91107 4.10393L9.00432 2.92696C9.0162 2.77709 9.14326 2.65968 9.29363 2.65968H10.777C10.9289 2.65968 11.056 2.77834 11.0665 2.92984L11.1487 4.11537C11.1676 4.38834 11.353 4.62131 11.6148 4.70096C11.9746 4.81046 12.3243 4.95743 12.654 5.13787C12.7533 5.19222 12.8623 5.21884 12.9706 5.21884C13.1243 5.21884 13.2768 5.16525 13.3989 5.06096L14.2973 4.2945C14.3646 4.23709 14.4368 4.22506 14.4855 4.22506C14.5304 4.22506 14.6169 4.23609 14.6909 4.31006L15.7397 5.35893C15.8471 5.46631 15.8531 5.64012 15.7534 5.75468L14.9729 6.6514C14.7932 6.8579 14.7597 7.1539 14.8886 7.3954C15.0658 7.72715 15.2093 8.07825 15.315 8.43884C15.392 8.7015 15.6232 8.88931 15.896 8.91093L17.073 9.00418C17.2229 9.01606 17.3403 9.14312 17.3403 9.2935V10.7769C17.3403 10.9287 17.2216 11.0559 17.0701 11.0664L15.8846 11.1485C15.6116 11.1674 15.3787 11.3529 15.299 11.6147C15.1895 11.9745 15.0425 12.3241 14.8621 12.6539C14.7307 12.8941 14.7613 13.1905 14.939 13.3988L15.7054 14.2972C15.803 14.4115 15.7962 14.5844 15.6899 14.6907L14.641 15.7397C14.567 15.8137 14.4806 15.8247 14.4356 15.8247C14.3862 15.8247 14.3129 15.8123 14.2453 15.7534L13.3485 14.9729C13.2257 14.866 13.0711 14.8108 12.9152 14.8108C12.8091 14.8108 12.7024 14.8364 12.6046 14.8886C12.2891 15.0571 11.9561 15.1952 11.6148 15.299C11.353 15.3786 11.1676 15.6116 11.1487 15.8846L11.0665 17.0701C11.056 17.2216 10.9288 17.3403 10.777 17.3403H9.2936V17.3402ZM10 6.3699C7.99838 6.3699 6.36995 7.99834 6.36995 10C6.36995 12.0017 7.99838 13.6301 10 13.6301C12.0017 13.6301 13.6301 12.0017 13.6301 10C13.6301 7.99834 12.0017 6.3699 10 6.3699Z" fill="#A7B7C6"/>
<path d="M10 5.394C7.45623 5.394 5.39404 7.45618 5.39404 10C5.39404 12.5438 7.45623 14.606 10 14.606C12.5439 14.606 14.606 12.5438 14.606 10C14.606 7.45618 12.5439 5.394 10 5.394ZM10 12.9703C8.35961 12.9703 7.02976 11.6404 7.02976 10C7.02976 8.35956 8.35961 7.02968 10 7.02968C11.6405 7.02968 12.9703 8.35953 12.9703 10C12.9703 11.6405 11.6405 12.9703 10 12.9703Z" fill="#BBC6D4"/>
<path d="M10 5.394C7.45623 5.394 5.39404 7.45618 5.39404 10H7.02973C7.02973 8.35956 8.35957 7.02968 10 7.02968C11.6404 7.02968 12.9703 8.35953 12.9703 10H14.606C14.606 7.45618 12.5439 5.394 10 5.394Z" fill="#96ABBC"/>
</svg>
