<svg width="20" height="18" viewBox="0 0 20 18" fill="none" xmlns="http://www.w3.org/2000/svg">
<path fill-rule="evenodd" clip-rule="evenodd" d="M3.64441 11.5931L5.94324 13.8565L17.3812 2.59464L17.7177 0L15.0824 0.331234L3.64441 11.5931Z" fill="#E5E5E5"/>
<path fill-rule="evenodd" clip-rule="evenodd" d="M17.3812 2.64985L15.1945 2.48422L5.66284 11.8691L6.44778 13.3596L17.3812 2.64985Z" fill="#CBCBCB"/>
<path fill-rule="evenodd" clip-rule="evenodd" d="M3.98079 12.8628L0.672729 16.1199L1.28947 16.7271L4.59753 13.47L3.98079 12.8628Z" fill="#502800"/>
<path fill-rule="evenodd" clip-rule="evenodd" d="M4.31722 13.194L1.00916 16.4511L1.2895 16.7271L4.59756 13.47L4.31722 13.194Z" fill="#3C1E00"/>
<path fill-rule="evenodd" clip-rule="evenodd" d="M0.504631 15.7334L0 16.2303L1.28957 17.5L1.7942 17.0031L0.504631 15.7334Z" fill="#FFC121"/>
<path fill-rule="evenodd" clip-rule="evenodd" d="M0.560627 15.7886L0.0560303 16.2855L0.392428 16.6167L0.89706 16.1199L0.560627 15.7886Z" fill="white"/>
<path fill-rule="evenodd" clip-rule="evenodd" d="M1.28963 16.5063L0.785034 17.0032L1.23358 17.4448L1.73821 16.948L1.28963 16.5063Z" fill="#F67D00"/>
<path fill-rule="evenodd" clip-rule="evenodd" d="M5.66295 11.8691L1.9624 9.93692L3.9248 13.5805L7.62535 15.5126L5.66295 11.8691Z" fill="#F67D00"/>
<path fill-rule="evenodd" clip-rule="evenodd" d="M4.82192 12.7524L3.81266 11.7587L3.30806 11.2619L1.9624 9.93692L3.70055 10.8754L4.37335 11.2066L5.66295 11.8691L4.82192 12.7524Z" fill="#FFC121"/>
<path fill-rule="evenodd" clip-rule="evenodd" d="M3.81266 11.7587L4.82192 12.7524L3.9248 13.5805L1.9624 9.93692L3.30806 11.2619L3.81266 11.7587Z" fill="#F67D00"/>
<path fill-rule="evenodd" clip-rule="evenodd" d="M3.9248 13.5804L4.82192 12.7523L5.77506 13.6908L6.27969 14.1877L7.62535 15.5126L3.9248 13.5804Z" fill="#DD7100"/>
<path fill-rule="evenodd" clip-rule="evenodd" d="M4.26128 12.2003C3.98094 12.4763 3.98094 12.9731 4.26128 13.3044C4.54163 13.5804 5.04624 13.5804 5.38266 13.3044C5.663 13.0284 5.663 12.5315 5.38266 12.2003C5.10231 11.9242 4.59769 11.9242 4.26128 12.2003Z" fill="#8D2300"/>
<path fill-rule="evenodd" clip-rule="evenodd" d="M4.42938 12.2555C4.26117 12.4211 4.26117 12.6971 4.42938 12.8075C4.59758 12.9732 4.87793 12.9732 4.99006 12.8075C5.15827 12.6419 5.15827 12.3659 4.99006 12.2555C4.82186 12.0899 4.54151 12.0899 4.42938 12.2555Z" fill="white"/>
<path fill-rule="evenodd" clip-rule="evenodd" d="M4.48556 13.0284C4.70983 13.1388 4.93412 13.1388 5.15839 13.0836C5.27053 13.0284 5.3266 12.9732 5.43873 12.918C5.55087 12.8076 5.60693 12.6972 5.60693 12.5867C5.663 12.8076 5.60695 13.0836 5.38268 13.3044C5.10234 13.5804 4.59772 13.5804 4.26131 13.3044C4.26131 13.3044 4.26129 13.3044 4.20522 13.2492C4.03701 13.0284 3.98095 12.7524 4.03702 12.5315C4.09309 12.6972 4.14917 12.8076 4.26131 12.918C4.37344 12.9732 4.42949 12.9732 4.48556 13.0284Z" fill="#721A00"/>
<path fill-rule="evenodd" clip-rule="evenodd" d="M5.27045 12.4763C5.21438 12.5315 5.21438 12.6419 5.27045 12.7524C5.32651 12.8076 5.43865 12.8076 5.55079 12.7524C5.60686 12.6971 5.60686 12.5867 5.55079 12.4763C5.43865 12.4211 5.32651 12.4211 5.27045 12.4763Z" fill="white"/>
<path fill-rule="evenodd" clip-rule="evenodd" d="M1.73815 9.71609C1.51388 9.93691 1.51388 10.2681 1.73815 10.489C1.96243 10.7098 2.29882 10.7098 2.52309 10.489C2.74737 10.2681 2.74737 9.93691 2.52309 9.71609C2.35489 9.49527 1.96243 9.49527 1.73815 9.71609Z" fill="#FFC121"/>
<path fill-rule="evenodd" clip-rule="evenodd" d="M1.84961 9.71606C1.73747 9.82647 1.73747 10.0473 1.84961 10.1577C1.96174 10.2681 2.18604 10.2681 2.29818 10.1577C2.41032 10.0473 2.41032 9.82647 2.29818 9.71606C2.12998 9.60565 1.96174 9.60565 1.84961 9.71606Z" fill="white"/>
<path fill-rule="evenodd" clip-rule="evenodd" d="M1.90634 10.3234C2.07455 10.3786 2.24273 10.4338 2.41094 10.3786C2.46701 10.3786 2.5231 10.3234 2.57917 10.2682C2.63524 10.2129 2.6913 10.1025 2.74737 10.0473C2.80344 10.213 2.74738 10.4338 2.57917 10.5442C2.3549 10.765 2.01847 10.765 1.7942 10.5442C1.7942 10.5442 1.79421 10.5442 1.73814 10.489C1.62601 10.3234 1.56993 10.1025 1.626 9.93692C1.626 10.0473 1.68206 10.1577 1.7942 10.2129C1.7942 10.2682 1.85027 10.2682 1.90634 10.3234Z" fill="#F67D00"/>
<path fill-rule="evenodd" clip-rule="evenodd" d="M2.46682 9.88171C2.41096 9.93691 2.41096 9.99211 2.46682 10.0473C2.52269 10.1025 2.57854 10.1025 2.6344 10.0473C2.69027 9.99211 2.69027 9.93691 2.6344 9.88171C2.57854 9.8265 2.52269 9.8265 2.46682 9.88171Z" fill="white"/>
<path fill-rule="evenodd" clip-rule="evenodd" d="M7.00976 14.8501C6.78548 15.071 6.78548 15.4022 7.00976 15.623C7.23403 15.8438 7.57046 15.8438 7.79473 15.623C8.01901 15.4022 8.01901 15.071 7.79473 14.8501C7.57046 14.6845 7.23403 14.6845 7.00976 14.8501Z" fill="#FFC121"/>
<path fill-rule="evenodd" clip-rule="evenodd" d="M7.06311 14.9053C6.95097 15.0157 6.95097 15.2365 7.06311 15.347C7.17524 15.4574 7.39951 15.4574 7.51165 15.347C7.62379 15.2365 7.62379 15.0157 7.51165 14.9053C7.39951 14.7949 7.17524 14.7949 7.06311 14.9053Z" fill="white"/>
<path fill-rule="evenodd" clip-rule="evenodd" d="M7.1207 15.4574C7.2889 15.5126 7.45712 15.5678 7.62533 15.5126C7.6814 15.5126 7.73746 15.4574 7.79353 15.4022C7.8496 15.347 7.90566 15.2366 7.96173 15.1814C8.0178 15.347 7.96173 15.5678 7.79353 15.6782C7.56925 15.899 7.23283 15.899 7.00855 15.6782C7.00855 15.6782 7.00857 15.6782 6.9525 15.623C6.84036 15.4574 6.78429 15.2366 6.84035 15.071C6.84035 15.1814 6.89642 15.2918 7.00855 15.347C7.06462 15.4022 7.06463 15.4574 7.1207 15.4574Z" fill="#F67D00"/>
<path fill-rule="evenodd" clip-rule="evenodd" d="M7.68118 15.0709C7.62532 15.1261 7.62532 15.1813 7.68118 15.2365C7.73704 15.2917 7.7929 15.2917 7.84876 15.2365C7.90462 15.1813 7.90462 15.1261 7.84876 15.0709C7.84876 15.0157 7.73704 15.0157 7.68118 15.0709Z" fill="white"/>
<path fill-rule="evenodd" clip-rule="evenodd" d="M15.0824 0.38644L15.1945 2.48423L17.3812 2.64985L17.6615 0.0552063L15.0824 0.38644Z" fill="#E8E8E8"/>
<path fill-rule="evenodd" clip-rule="evenodd" d="M15.1946 2.48418L15.1385 0.938446L15.0264 2.42899L12.2791 5.35485L15.1946 2.64981L17.157 2.5946L15.1946 2.48418Z" fill="white"/>
<path fill-rule="evenodd" clip-rule="evenodd" d="M16.3556 11.5931L14.0568 13.8565L2.61875 2.59464L2.28235 0L4.91758 0.331234L16.3556 11.5931Z" fill="#E5E5E5"/>
<path fill-rule="evenodd" clip-rule="evenodd" d="M2.61877 2.64985L4.74937 2.48422L14.281 11.8691L13.4961 13.3596L2.61877 2.64985Z" fill="#CBCBCB"/>
<path fill-rule="evenodd" clip-rule="evenodd" d="M15.9631 12.8628L19.2711 16.1199L18.6544 16.7271L15.3463 13.47L15.9631 12.8628Z" fill="#502800"/>
<path fill-rule="evenodd" clip-rule="evenodd" d="M15.6827 13.194L18.9907 16.4511L18.7104 16.7271L15.4023 13.47L15.6827 13.194Z" fill="#3C1E00"/>
<path fill-rule="evenodd" clip-rule="evenodd" d="M19.4954 15.7334L20 16.2303L18.7104 17.5L18.2058 17.0031L19.4954 15.7334Z" fill="#FFC121"/>
<path fill-rule="evenodd" clip-rule="evenodd" d="M19.4394 15.7886L19.9441 16.2855L19.6076 16.6167L19.103 16.1199L19.4394 15.7886Z" fill="white"/>
<path fill-rule="evenodd" clip-rule="evenodd" d="M18.6544 16.5063L19.159 17.0032L18.7104 17.5L18.2058 17.0032L18.6544 16.5063Z" fill="#F67D00"/>
<path fill-rule="evenodd" clip-rule="evenodd" d="M14.281 11.8691L17.9816 9.93692L16.0192 13.5805L12.3186 15.5126L14.281 11.8691Z" fill="#F67D00"/>
<path fill-rule="evenodd" clip-rule="evenodd" d="M15.1781 12.7524L16.1874 11.7587L16.692 11.2619L17.9816 9.93692L16.2434 10.8754L15.6267 11.2066L14.281 11.8691L15.1781 12.7524Z" fill="#FFC121"/>
<path fill-rule="evenodd" clip-rule="evenodd" d="M16.1873 11.7587L15.1781 12.7524L16.0191 13.5805L17.9815 9.93692L16.692 11.2619L16.1873 11.7587Z" fill="#F67D00"/>
<path fill-rule="evenodd" clip-rule="evenodd" d="M16.0192 13.5804L15.1782 12.7523L14.169 13.6908L13.6643 14.1877L12.3748 15.5126L16.0192 13.5804Z" fill="#DD7100"/>
<path fill-rule="evenodd" clip-rule="evenodd" d="M15.6827 12.2003C15.963 12.4763 15.963 12.9731 15.6827 13.3044C15.4024 13.5804 14.8977 13.5804 14.5613 13.3044C14.281 13.0284 14.281 12.5315 14.5613 12.2003C14.8977 11.9242 15.3463 11.9242 15.6827 12.2003Z" fill="#8D2300"/>
<path fill-rule="evenodd" clip-rule="evenodd" d="M15.5706 12.2555C15.7388 12.4211 15.7388 12.6971 15.5706 12.8075C15.4024 12.9732 15.1221 12.9732 15.0099 12.8075C14.8417 12.6419 14.8417 12.3659 15.0099 12.2555C15.1221 12.0899 15.4024 12.0899 15.5706 12.2555Z" fill="white"/>
<path fill-rule="evenodd" clip-rule="evenodd" d="M15.4585 13.0284C15.2342 13.1388 15.0099 13.1388 14.7857 13.0836C14.6735 13.0284 14.6175 12.9732 14.5053 12.918C14.3932 12.8076 14.3371 12.6972 14.3371 12.5867C14.2811 12.8076 14.3371 13.0836 14.5614 13.3044C14.8417 13.5804 15.3463 13.5804 15.6827 13.3044C15.6827 13.3044 15.6828 13.3044 15.7388 13.2492C15.907 13.0284 15.9631 12.7524 15.907 12.5315C15.851 12.6972 15.7949 12.8076 15.6827 12.918C15.6267 12.9732 15.5706 12.9732 15.4585 13.0284Z" fill="#721A00"/>
<path fill-rule="evenodd" clip-rule="evenodd" d="M14.7283 12.4763C14.7843 12.5315 14.7843 12.6419 14.7283 12.7524C14.6722 12.8076 14.5601 12.8076 14.4479 12.7524C14.3919 12.6971 14.3919 12.5867 14.4479 12.4763C14.504 12.4211 14.6161 12.4211 14.7283 12.4763Z" fill="white"/>
<path fill-rule="evenodd" clip-rule="evenodd" d="M18.2069 9.71609C18.4312 9.93691 18.4312 10.2681 18.2069 10.489C17.9827 10.7098 17.6463 10.7098 17.422 10.489C17.1977 10.2681 17.1977 9.93691 17.422 9.71609C17.6463 9.49527 17.9827 9.49527 18.2069 9.71609Z" fill="#FFC121"/>
<path fill-rule="evenodd" clip-rule="evenodd" d="M18.1498 9.71606C18.262 9.82647 18.262 10.0473 18.1498 10.1577C18.0377 10.2681 17.8134 10.2681 17.7013 10.1577C17.5892 10.0473 17.5892 9.82647 17.7013 9.71606C17.8134 9.60565 18.0377 9.60565 18.1498 9.71606Z" fill="white"/>
<path fill-rule="evenodd" clip-rule="evenodd" d="M18.0937 10.3234C17.9255 10.3786 17.7573 10.4338 17.5891 10.3786C17.533 10.3786 17.477 10.3234 17.4209 10.2682C17.3648 10.2129 17.3088 10.1025 17.2527 10.0473C17.1966 10.213 17.2527 10.4338 17.4209 10.5442C17.6452 10.765 17.9816 10.765 18.2059 10.5442C18.2059 10.5442 18.2059 10.5442 18.2619 10.489C18.3741 10.3234 18.4302 10.1025 18.3741 9.93692C18.3741 10.0473 18.318 10.1577 18.2059 10.2129C18.1498 10.2682 18.0937 10.2682 18.0937 10.3234Z" fill="#F67D00"/>
<path fill-rule="evenodd" clip-rule="evenodd" d="M17.531 9.88171C17.5869 9.93691 17.5869 9.99211 17.531 10.0473C17.4752 10.1025 17.4193 10.1025 17.3634 10.0473C17.3076 9.99211 17.3076 9.93691 17.3634 9.88171C17.3634 9.8265 17.4752 9.8265 17.531 9.88171Z" fill="white"/>
<path fill-rule="evenodd" clip-rule="evenodd" d="M12.9903 14.8501C13.2145 15.071 13.2145 15.4022 12.9903 15.623C12.766 15.8438 12.4296 15.8438 12.2053 15.623C11.981 15.4022 11.981 15.071 12.2053 14.8501C12.3735 14.6845 12.766 14.6845 12.9903 14.8501Z" fill="#FFC121"/>
<path fill-rule="evenodd" clip-rule="evenodd" d="M12.8793 14.9053C12.9915 15.0157 12.9915 15.2365 12.8793 15.347C12.7672 15.4574 12.5429 15.4574 12.4308 15.347C12.3186 15.2365 12.3186 15.0157 12.4308 14.9053C12.599 14.7949 12.7672 14.7949 12.8793 14.9053Z" fill="white"/>
<path fill-rule="evenodd" clip-rule="evenodd" d="M12.8232 15.4574C12.655 15.5126 12.4868 15.5678 12.3186 15.5126C12.2625 15.5126 12.2065 15.4574 12.1504 15.4022C12.0943 15.347 12.0383 15.2366 11.9822 15.1814C11.9261 15.347 11.9822 15.5678 12.1504 15.6782C12.3747 15.899 12.7111 15.899 12.9354 15.6782C12.9354 15.6782 12.9354 15.6782 12.9914 15.623C13.1036 15.4574 13.1596 15.2366 13.1036 15.071C13.1036 15.1814 13.0475 15.2918 12.9354 15.347C12.9354 15.4022 12.8793 15.4574 12.8232 15.4574Z" fill="#F67D00"/>
<path fill-rule="evenodd" clip-rule="evenodd" d="M12.2604 15.0709C12.3162 15.1261 12.3162 15.1813 12.2604 15.2365C12.2045 15.2917 12.1487 15.2917 12.0928 15.2365C12.0369 15.1813 12.0369 15.1261 12.0928 15.0709C12.1487 15.0157 12.2045 15.0157 12.2604 15.0709Z" fill="white"/>
<path fill-rule="evenodd" clip-rule="evenodd" d="M4.86149 0.38644L4.74935 2.48423L2.61875 2.64985L2.28235 0.0552063L4.86149 0.38644Z" fill="#E8E8E8"/>
<path fill-rule="evenodd" clip-rule="evenodd" d="M4.74933 2.48418L4.86147 0.938446L4.91756 2.42899L7.66491 5.35485L4.74933 2.64981L2.84302 2.5946L4.74933 2.48418Z" fill="white"/>
</svg>
