<svg width="16" height="14" viewBox="0 0 16 14" fill="none" xmlns="http://www.w3.org/2000/svg">
<path fill-rule="evenodd" clip-rule="evenodd" d="M2.91556 9.27444L4.75462 11.0852L13.905 2.07571L14.1741 0L12.066 0.264987L2.91556 9.27444Z" fill="#E5E5E5"/>
<path fill-rule="evenodd" clip-rule="evenodd" d="M13.905 2.1199L12.1557 1.9874L4.53036 9.49528L5.15832 10.6877L13.905 2.1199Z" fill="#CBCBCB"/>
<path fill-rule="evenodd" clip-rule="evenodd" d="M3.18472 10.2902L0.538269 12.8959L1.03166 13.3817L3.67811 10.776L3.18472 10.2902Z" fill="#502800"/>
<path fill-rule="evenodd" clip-rule="evenodd" d="M3.45382 10.5552L0.807373 13.1609L1.03165 13.3817L3.6781 10.776L3.45382 10.5552Z" fill="#3C1E00"/>
<path fill-rule="evenodd" clip-rule="evenodd" d="M0.403705 12.5867L0 12.9842L1.03166 14L1.43536 13.6025L0.403705 12.5867Z" fill="#FFC121"/>
<path fill-rule="evenodd" clip-rule="evenodd" d="M0.448538 12.6309L0.0448608 13.0284L0.313979 13.2934L0.717684 12.8959L0.448538 12.6309Z" fill="white"/>
<path fill-rule="evenodd" clip-rule="evenodd" d="M1.03167 13.205L0.627991 13.6025L0.986824 13.9558L1.39053 13.5584L1.03167 13.205Z" fill="#F67D00"/>
<path fill-rule="evenodd" clip-rule="evenodd" d="M4.53038 9.49526L1.56995 7.94952L3.13987 10.8644L6.1003 12.4101L4.53038 9.49526Z" fill="#F67D00"/>
<path fill-rule="evenodd" clip-rule="evenodd" d="M3.85756 10.2019L3.05015 9.40694L2.64647 9.00947L1.56995 7.94952L2.96046 8.70032L3.4987 8.9653L4.53038 9.49526L3.85756 10.2019Z" fill="#FFC121"/>
<path fill-rule="evenodd" clip-rule="evenodd" d="M3.05015 9.40694L3.85756 10.2019L3.13987 10.8644L1.56995 7.94952L2.64647 9.00947L3.05015 9.40694Z" fill="#F67D00"/>
<path fill-rule="evenodd" clip-rule="evenodd" d="M3.13983 10.8643L3.85753 10.2019L4.62004 10.9527L5.02374 11.3501L6.10027 12.4101L3.13983 10.8643Z" fill="#DD7100"/>
<path fill-rule="evenodd" clip-rule="evenodd" d="M3.40899 9.76022C3.18472 9.98104 3.18472 10.3785 3.40899 10.6435C3.63326 10.8643 4.03696 10.8643 4.30609 10.6435C4.53036 10.4227 4.53036 10.0252 4.30609 9.76022C4.08181 9.5394 3.67812 9.5394 3.40899 9.76022Z" fill="#8D2300"/>
<path fill-rule="evenodd" clip-rule="evenodd" d="M3.54355 9.80439C3.40899 9.93688 3.40899 10.1577 3.54355 10.246C3.67811 10.3785 3.90239 10.3785 3.9921 10.246C4.12666 10.1135 4.12666 9.89271 3.9921 9.80439C3.85753 9.67189 3.63326 9.67189 3.54355 9.80439Z" fill="white"/>
<path fill-rule="evenodd" clip-rule="evenodd" d="M3.58839 10.4227C3.76781 10.511 3.94724 10.511 4.12666 10.4669C4.21637 10.4227 4.26122 10.3786 4.35093 10.3344C4.44064 10.2461 4.48549 10.1577 4.48549 10.0694C4.53034 10.2461 4.48551 10.4669 4.30609 10.6435C4.08181 10.8644 3.67812 10.8644 3.40899 10.6435C3.40899 10.6435 3.40897 10.6435 3.36412 10.5994C3.22955 10.4227 3.1847 10.2019 3.22956 10.0252C3.27441 10.1577 3.31928 10.2461 3.40899 10.3344C3.4987 10.3786 3.54354 10.3785 3.58839 10.4227Z" fill="#721A00"/>
<path fill-rule="evenodd" clip-rule="evenodd" d="M4.21635 9.98106C4.1715 10.0252 4.1715 10.1136 4.21635 10.2019C4.2612 10.246 4.35091 10.246 4.44062 10.2019C4.48548 10.1577 4.48548 10.0694 4.44062 9.98106C4.35091 9.9369 4.2612 9.9369 4.21635 9.98106Z" fill="white"/>
<path fill-rule="evenodd" clip-rule="evenodd" d="M1.39052 7.77287C1.2111 7.94953 1.2111 8.21451 1.39052 8.39117C1.56993 8.56782 1.83905 8.56782 2.01847 8.39117C2.19789 8.21451 2.19789 7.94953 2.01847 7.77287C1.8839 7.59622 1.56993 7.59622 1.39052 7.77287Z" fill="#FFC121"/>
<path fill-rule="evenodd" clip-rule="evenodd" d="M1.48019 7.77285C1.39048 7.86118 1.39048 8.03784 1.48019 8.12617C1.56989 8.2145 1.74934 8.2145 1.83905 8.12617C1.92876 8.03784 1.92876 7.86118 1.83905 7.77285C1.70448 7.68452 1.56989 7.68452 1.48019 7.77285Z" fill="white"/>
<path fill-rule="evenodd" clip-rule="evenodd" d="M1.52507 8.25868C1.65964 8.30284 1.79419 8.34701 1.92875 8.30284C1.97361 8.30284 2.01848 8.25867 2.06334 8.21451C2.10819 8.17035 2.15304 8.08202 2.1979 8.03786C2.24275 8.17035 2.1979 8.347 2.06334 8.43533C1.88392 8.61199 1.61478 8.61199 1.43536 8.43533C1.43536 8.43533 1.43537 8.43533 1.39051 8.39116C1.3008 8.25867 1.25594 8.08202 1.3008 7.94952C1.3008 8.03785 1.34565 8.12618 1.43536 8.17034C1.43536 8.21451 1.48022 8.21451 1.52507 8.25868Z" fill="#F67D00"/>
<path fill-rule="evenodd" clip-rule="evenodd" d="M1.97361 7.90538C1.92876 7.94954 1.92876 7.9937 1.97361 8.03786C2.01847 8.08203 2.06332 8.08203 2.10817 8.03786C2.15303 7.9937 2.15303 7.94954 2.10817 7.90538C2.06332 7.86121 2.01847 7.86121 1.97361 7.90538Z" fill="white"/>
<path fill-rule="evenodd" clip-rule="evenodd" d="M5.6078 11.8801C5.42838 12.0568 5.42838 12.3218 5.6078 12.4984C5.78722 12.6751 6.05636 12.6751 6.23578 12.4984C6.4152 12.3218 6.4152 12.0568 6.23578 11.8801C6.05636 11.7476 5.78722 11.7476 5.6078 11.8801Z" fill="#FFC121"/>
<path fill-rule="evenodd" clip-rule="evenodd" d="M5.65172 11.9243C5.56201 12.0126 5.56201 12.1893 5.65172 12.2776C5.74143 12.3659 5.92085 12.3659 6.01056 12.2776C6.10027 12.1893 6.10027 12.0126 6.01056 11.9243C5.92085 11.836 5.74143 11.836 5.65172 11.9243Z" fill="white"/>
<path fill-rule="evenodd" clip-rule="evenodd" d="M5.69658 12.3659C5.83115 12.4101 5.96572 12.4543 6.10029 12.4101C6.14514 12.4101 6.18999 12.3659 6.23485 12.3218C6.2797 12.2776 6.32455 12.1893 6.36941 12.1451C6.41426 12.2776 6.36941 12.4543 6.23485 12.5426C6.05543 12.7193 5.78629 12.7193 5.60687 12.5426C5.60687 12.5426 5.60688 12.5426 5.56202 12.4984C5.47231 12.3659 5.42745 12.1893 5.47231 12.0568C5.47231 12.1451 5.51716 12.2334 5.60687 12.2776C5.65172 12.3218 5.65173 12.3659 5.69658 12.3659Z" fill="#F67D00"/>
<path fill-rule="evenodd" clip-rule="evenodd" d="M6.14512 12.0567C6.10027 12.1009 6.10027 12.1451 6.14512 12.1892C6.18998 12.2334 6.23483 12.2334 6.27968 12.1892C6.32454 12.1451 6.32454 12.1009 6.27968 12.0567C6.27968 12.0126 6.18998 12.0126 6.14512 12.0567Z" fill="white"/>
<path fill-rule="evenodd" clip-rule="evenodd" d="M12.066 0.309146L12.1557 1.98737L13.905 2.11987L14.1293 0.0441589L12.066 0.309146Z" fill="#E8E8E8"/>
<path fill-rule="evenodd" clip-rule="evenodd" d="M12.1557 1.98735L12.1108 0.750763L12.0211 1.9432L9.82321 4.28388L12.1557 2.11985L13.7256 2.07568L12.1557 1.98735Z" fill="white"/>
<path fill-rule="evenodd" clip-rule="evenodd" d="M13.0844 9.27444L11.2454 11.0852L2.09498 2.07571L1.82587 0L3.93405 0.264987L13.0844 9.27444Z" fill="#E5E5E5"/>
<path fill-rule="evenodd" clip-rule="evenodd" d="M2.09497 2.1199L3.79945 1.9874L11.4248 9.49528L10.7968 10.6877L2.09497 2.1199Z" fill="#CBCBCB"/>
<path fill-rule="evenodd" clip-rule="evenodd" d="M12.7704 10.2902L15.4169 12.8959L14.9235 13.3817L12.277 10.776L12.7704 10.2902Z" fill="#502800"/>
<path fill-rule="evenodd" clip-rule="evenodd" d="M12.5462 10.5552L15.1926 13.1609L14.9683 13.3817L12.3219 10.776L12.5462 10.5552Z" fill="#3C1E00"/>
<path fill-rule="evenodd" clip-rule="evenodd" d="M15.5963 12.5867L16 12.9842L14.9683 14L14.5646 13.6025L15.5963 12.5867Z" fill="#FFC121"/>
<path fill-rule="evenodd" clip-rule="evenodd" d="M15.5514 12.6309L15.9551 13.0284L15.686 13.2934L15.2823 12.8959L15.5514 12.6309Z" fill="white"/>
<path fill-rule="evenodd" clip-rule="evenodd" d="M14.9235 13.205L15.3272 13.6025L14.9683 14L14.5646 13.6025L14.9235 13.205Z" fill="#F67D00"/>
<path fill-rule="evenodd" clip-rule="evenodd" d="M11.4248 9.49526L14.3852 7.94952L12.8153 10.8644L9.85486 12.4101L11.4248 9.49526Z" fill="#F67D00"/>
<path fill-rule="evenodd" clip-rule="evenodd" d="M12.1425 10.2019L12.9499 9.40694L13.3536 9.00947L14.3852 7.94952L12.9947 8.70032L12.5013 8.9653L11.4248 9.49526L12.1425 10.2019Z" fill="#FFC121"/>
<path fill-rule="evenodd" clip-rule="evenodd" d="M12.9499 9.40694L12.1425 10.2019L12.8153 10.8644L14.3852 7.94952L13.3536 9.00947L12.9499 9.40694Z" fill="#F67D00"/>
<path fill-rule="evenodd" clip-rule="evenodd" d="M12.8153 10.8643L12.1425 10.2019L11.3351 10.9527L10.9314 11.3501L9.89975 12.4101L12.8153 10.8643Z" fill="#DD7100"/>
<path fill-rule="evenodd" clip-rule="evenodd" d="M12.5462 9.76022C12.7704 9.98104 12.7704 10.3785 12.5462 10.6435C12.3219 10.8643 11.9182 10.8643 11.6491 10.6435C11.4248 10.4227 11.4248 10.0252 11.6491 9.76022C11.9182 9.5394 12.277 9.5394 12.5462 9.76022Z" fill="#8D2300"/>
<path fill-rule="evenodd" clip-rule="evenodd" d="M12.4565 9.80439C12.5911 9.93688 12.5911 10.1577 12.4565 10.246C12.322 10.3785 12.0977 10.3785 12.008 10.246C11.8734 10.1135 11.8734 9.89271 12.008 9.80439C12.0977 9.67189 12.322 9.67189 12.4565 9.80439Z" fill="white"/>
<path fill-rule="evenodd" clip-rule="evenodd" d="M12.3668 10.4227C12.1873 10.511 12.0079 10.511 11.8285 10.4669C11.7388 10.4227 11.6939 10.3786 11.6042 10.3344C11.5145 10.2461 11.4697 10.1577 11.4697 10.0694C11.4248 10.2461 11.4697 10.4669 11.6491 10.6435C11.8733 10.8644 12.277 10.8644 12.5462 10.6435C12.5462 10.6435 12.5462 10.6435 12.591 10.5994C12.7256 10.4227 12.7705 10.2019 12.7256 10.0252C12.6807 10.1577 12.6359 10.2461 12.5462 10.3344C12.5013 10.3786 12.4565 10.3785 12.3668 10.4227Z" fill="#721A00"/>
<path fill-rule="evenodd" clip-rule="evenodd" d="M11.7837 9.98106C11.8285 10.0252 11.8285 10.1136 11.7837 10.2019C11.7388 10.246 11.6491 10.246 11.5594 10.2019C11.5145 10.1577 11.5145 10.0694 11.5594 9.98106C11.6043 9.9369 11.694 9.9369 11.7837 9.98106Z" fill="white"/>
<path fill-rule="evenodd" clip-rule="evenodd" d="M14.5655 7.77287C14.7449 7.94953 14.7449 8.21451 14.5655 8.39117C14.3861 8.56782 14.117 8.56782 13.9376 8.39117C13.7582 8.21451 13.7582 7.94953 13.9376 7.77287C14.117 7.59622 14.3861 7.59622 14.5655 7.77287Z" fill="#FFC121"/>
<path fill-rule="evenodd" clip-rule="evenodd" d="M14.5198 7.77285C14.6095 7.86118 14.6095 8.03784 14.5198 8.12617C14.4301 8.2145 14.2507 8.2145 14.1609 8.12617C14.0712 8.03784 14.0712 7.86118 14.1609 7.77285C14.2507 7.68452 14.4301 7.68452 14.5198 7.77285Z" fill="white"/>
<path fill-rule="evenodd" clip-rule="evenodd" d="M14.475 8.25868C14.3404 8.30284 14.2058 8.34701 14.0712 8.30284C14.0264 8.30284 13.9815 8.25867 13.9367 8.21451C13.8918 8.17035 13.847 8.08202 13.8021 8.03786C13.7573 8.17035 13.8021 8.347 13.9367 8.43533C14.1161 8.61199 14.3852 8.61199 14.5646 8.43533C14.5646 8.43533 14.5647 8.43533 14.6095 8.39116C14.6992 8.25867 14.7441 8.08202 14.6992 7.94952C14.6992 8.03785 14.6544 8.12618 14.5646 8.17034C14.5198 8.21451 14.475 8.21451 14.475 8.25868Z" fill="#F67D00"/>
<path fill-rule="evenodd" clip-rule="evenodd" d="M14.0264 7.90538C14.0712 7.94954 14.0712 7.9937 14.0264 8.03786C13.9815 8.08203 13.9367 8.08203 13.8918 8.03786C13.8469 7.9937 13.8469 7.94954 13.8918 7.90538C13.8918 7.86121 13.9815 7.86121 14.0264 7.90538Z" fill="white"/>
<path fill-rule="evenodd" clip-rule="evenodd" d="M10.3931 11.8801C10.5726 12.0568 10.5726 12.3218 10.3931 12.4984C10.2137 12.6751 9.9446 12.6751 9.76518 12.4984C9.58576 12.3218 9.58576 12.0568 9.76518 11.8801C9.89974 11.7476 10.2137 11.7476 10.3931 11.8801Z" fill="#FFC121"/>
<path fill-rule="evenodd" clip-rule="evenodd" d="M10.3034 11.9243C10.3931 12.0126 10.3931 12.1893 10.3034 12.2776C10.2137 12.3659 10.0343 12.3659 9.94457 12.2776C9.85486 12.1893 9.85486 12.0126 9.94457 11.9243C10.0791 11.836 10.2137 11.836 10.3034 11.9243Z" fill="white"/>
<path fill-rule="evenodd" clip-rule="evenodd" d="M10.2586 12.3659C10.124 12.4101 9.98944 12.4543 9.85488 12.4101C9.81002 12.4101 9.76517 12.3659 9.72032 12.3218C9.67546 12.2776 9.63062 12.1893 9.58576 12.1451C9.54091 12.2776 9.58576 12.4543 9.72032 12.5426C9.89974 12.7193 10.1689 12.7193 10.3483 12.5426C10.3483 12.5426 10.3483 12.5426 10.3931 12.4984C10.4829 12.3659 10.5277 12.1893 10.4829 12.0568C10.4829 12.1451 10.438 12.2334 10.3483 12.2776C10.3483 12.3218 10.3034 12.3659 10.2586 12.3659Z" fill="#F67D00"/>
<path fill-rule="evenodd" clip-rule="evenodd" d="M9.81002 12.0567C9.85487 12.1009 9.85487 12.1451 9.81002 12.1892C9.76516 12.2334 9.72031 12.2334 9.67546 12.1892C9.6306 12.1451 9.6306 12.1009 9.67546 12.0567C9.72031 12.0126 9.76516 12.0126 9.81002 12.0567Z" fill="white"/>
<path fill-rule="evenodd" clip-rule="evenodd" d="M3.88918 0.309146L3.79946 1.98737L2.09498 2.11987L1.82587 0.0441589L3.88918 0.309146Z" fill="#E8E8E8"/>
<path fill-rule="evenodd" clip-rule="evenodd" d="M3.79946 1.98735L3.88918 0.750763L3.93405 1.9432L6.13192 4.28388L3.79946 2.11985L2.27441 2.07568L3.79946 1.98735Z" fill="white"/>
</svg>
