<svg width="14" height="16" viewBox="0 0 14 16" fill="none" xmlns="http://www.w3.org/2000/svg">
<path fill-rule="evenodd" clip-rule="evenodd" d="M1.44778 1.74851C0.908345 1.9703 0.692572 2.41386 0.692572 2.63564C0.31497 7.12673 1.50172 14.6673 6.62631 14.9446C11.7509 14.6673 12.9377 7.12673 12.56 2.63564C12.56 2.41386 12.3443 1.91485 11.8048 1.74851C8.13672 0.750495 5.06196 0.750495 1.44778 1.74851Z" stroke="#989898" stroke-width="1.188" stroke-miterlimit="22.9256"/>
<path fill-rule="evenodd" clip-rule="evenodd" d="M1.44778 1.74851C0.908345 1.9703 0.692572 2.41386 0.692572 2.63564C0.31497 7.12673 1.50172 14.6673 6.62631 14.9446C11.7509 14.6673 12.9377 7.12673 12.56 2.63564C12.56 2.41386 12.3443 1.91485 11.8048 1.74851C8.13672 0.750495 5.06196 0.750495 1.44778 1.74851Z" fill="#E5E5E5"/>
<path fill-rule="evenodd" clip-rule="evenodd" d="M6.19504 14.9445C6.35687 14.9445 6.46475 15 6.62658 15V11.7287L6.19504 14.9445Z" fill="white"/>
<path fill-rule="evenodd" clip-rule="evenodd" d="M6.62659 15C11.7512 14.7228 12.9379 7.18217 12.5603 2.69108C12.5603 2.46929 12.3446 1.97028 11.8051 1.80394C9.97106 1.30493 8.29882 1.02771 6.62659 1.02771V15Z" fill="#CBCBCB"/>
<path fill-rule="evenodd" clip-rule="evenodd" d="M6.62659 4.57622V1.02771C4.95435 1.02771 3.28212 1.30493 1.44805 1.80394C0.908622 2.02573 0.692848 2.46929 0.692848 2.69108C0.531019 4.57623 0.638905 6.96039 1.23228 9.12276C2.20325 7.51484 3.87549 6.01781 5.97927 4.9089C6.1411 4.74256 6.41081 4.63167 6.62659 4.57622Z" fill="#F6F6F7"/>
<path fill-rule="evenodd" clip-rule="evenodd" d="M6.62659 1.02771V4.57622C8.73037 3.63365 10.8881 3.30098 12.6143 3.57821C12.6143 3.30098 12.6143 2.9683 12.5603 2.69108C12.5603 2.46929 12.3446 1.97028 11.8051 1.80394C9.97106 1.24949 8.29882 1.02771 6.62659 1.02771Z" fill="#E5E5E5"/>
<path fill-rule="evenodd" clip-rule="evenodd" d="M1.44807 1.74851C0.908635 1.9703 0.692862 2.41386 0.692862 2.63564C0.47709 5.46336 0.854693 9.56633 2.47299 12.2277C1.23229 9.56633 0.962579 5.90693 1.12441 3.24554C1.12441 3.02376 1.28624 2.52475 1.82567 2.35841C5.17014 1.36039 8.02912 1.36039 11.3736 2.35841C11.913 2.58019 12.0749 3.02376 12.0749 3.24554C12.2906 5.85148 11.967 9.56633 10.7263 12.2277C12.3446 9.56633 12.7222 5.46336 12.5064 2.63564C12.5064 2.41386 12.2906 1.91485 11.7512 1.74851C8.13701 0.750495 5.06225 0.750495 1.44807 1.74851Z" fill="white"/>
<path fill-rule="evenodd" clip-rule="evenodd" d="M2.04143 1.80399C2.6348 1.80399 3.0124 2.69112 2.90452 3.80003C2.79663 4.90894 2.20326 5.79607 1.60988 5.79607C1.01651 5.79607 0.638907 4.90894 0.746793 3.80003C0.85468 2.69112 1.44805 1.80399 2.04143 1.80399Z" fill="white"/>
<path fill-rule="evenodd" clip-rule="evenodd" d="M11.4815 1.80399C11.1039 1.80399 10.8341 2.35844 10.942 3.07923C10.996 3.80003 11.4275 4.35448 11.8051 4.35448C12.1827 4.35448 12.4524 3.80003 12.3446 3.07923C12.2367 2.41389 11.8591 1.80399 11.4815 1.80399Z" fill="white"/>
<path fill-rule="evenodd" clip-rule="evenodd" d="M6.6266 1.24951L5.8714 1.69308L6.6266 7.07129V1.24951Z" fill="white"/>
</svg>
