<svg width="71" height="71" viewBox="0 0 71 71" fill="none" xmlns="http://www.w3.org/2000/svg">
<path d="M19.9688 12.2031C19.9688 26.2955 26.9223 41.0469 35.5 41.0469C44.0777 41.0469 51.0312 26.2955 51.0312 12.2031H19.9688Z" fill="url(#paint0_linear)"/>
<path d="M44.375 62.125V57.6875C44.375 57.0751 43.878 56.5781 43.2656 56.5781C42.6532 56.5781 42.1562 56.0811 42.1562 55.4688V53.1335C42.1562 52.5944 41.7635 52.1562 41.2366 52.0452C39.2275 51.6214 37.7188 49.8387 37.7188 47.7031V46.5938C37.7188 45.9814 37.2218 45.4844 36.6094 45.4844H34.3906C33.7782 45.4844 33.2812 45.9814 33.2812 46.5938V47.7031C33.2812 49.8387 31.7725 51.6214 29.7634 52.0452C29.2365 52.1562 28.8438 52.5944 28.8438 53.1335V55.4688C28.8438 56.0811 28.3467 56.5781 27.7344 56.5781C27.122 56.5781 26.625 57.0751 26.625 57.6875V62.125C26.625 62.7374 26.128 63.2344 25.5156 63.2344H23.2969C22.6845 63.2344 22.1875 63.7314 22.1875 64.3438V66.5625C22.1875 67.1749 22.6845 67.6719 23.2969 67.6719H47.7031C48.3155 67.6719 48.8125 67.1749 48.8125 66.5625V64.3438C48.8125 63.7314 48.3155 63.2344 47.7031 63.2344H45.4844C44.872 63.2344 44.375 62.7374 44.375 62.125Z" fill="url(#paint1_linear)"/>
<path d="M39.9375 43.2656C39.9375 42.0398 38.9446 41.0469 37.7188 41.0469H35.5H33.2812C32.0554 41.0469 31.0625 42.0398 31.0625 43.2656C31.0625 44.4915 32.0554 45.4844 33.2812 45.4844H37.7188C38.9446 45.4844 39.9375 44.4915 39.9375 43.2656Z" fill="#C08516"/>
<path d="M23.2969 12.2031H19.9688C19.9688 26.2955 26.9223 41.0469 35.5 41.0469C36.0625 41.0469 36.6171 40.9803 37.1641 40.8572C29.3696 39.1121 23.2969 25.3714 23.2969 12.2031Z" fill="#C08516"/>
<path d="M25.5156 63.2344H45.4844C44.872 63.2344 44.375 62.7374 44.375 62.125H26.625C26.625 62.7374 26.128 63.2344 25.5156 63.2344Z" fill="#C08516"/>
<path d="M42.1562 55.4688H28.8438C28.8438 56.0811 28.3467 56.5781 27.7344 56.5781H43.2656C42.6532 56.5781 42.1562 56.0811 42.1562 55.4688Z" fill="#C08516"/>
<path d="M39.9375 43.2656C39.9375 42.0398 38.9446 41.0469 37.7188 41.0469H35.5C34.2741 41.0469 33.2812 42.0398 33.2812 43.2656C33.2812 44.4915 34.2741 45.4844 35.5 45.4844H37.7188C38.9446 45.4844 39.9375 44.4915 39.9375 43.2656Z" fill="url(#paint2_linear)"/>
<path d="M23.2969 37.7188C21.462 37.7188 19.9687 36.2255 19.9687 34.3906H22.1875C22.1875 35.003 22.6856 35.5 23.2969 35.5C23.7817 35.5 24.221 35.1616 24.3619 34.6979C23.8748 33.3456 18.7495 28.6019 15.6633 25.7453C12.2064 22.5447 10.2251 20.6865 9.68927 19.728C8.53774 17.6635 8.57768 15.0953 9.79355 13.0263C10.9284 11.0926 12.8421 9.98438 15.0431 9.98438C16.8625 9.98438 18.8793 11.2091 19.9832 12.3485C20.9583 13.3547 21.2689 14.7591 20.7741 15.9262C20.2905 17.0688 19.16 17.75 17.75 17.75C15.9151 17.75 14.4219 16.2568 14.4219 14.4219H16.6406C16.6406 15.0342 17.1387 15.5312 17.75 15.5312C18.0418 15.5312 18.5576 15.4702 18.7307 15.0609C18.8771 14.7148 18.7429 14.2566 18.389 13.8927C17.6013 13.0806 16.0981 12.2031 15.0431 12.2031C13.6497 12.2031 12.4328 12.9131 11.7072 14.1501C10.8885 15.5435 10.8586 17.2674 11.6285 18.6475C12.0179 19.3464 14.7558 21.8813 17.172 24.1178C24.607 31.0004 26.8735 33.3988 26.5717 34.9963C26.2711 36.5739 24.8944 37.7188 23.2969 37.7188Z" fill="url(#paint3_linear)"/>
<path d="M47.6832 37.7188C46.0857 37.7188 44.7078 36.5739 44.4094 34.9963C44.1076 33.3988 46.3741 30.9993 53.8102 24.1156C56.2254 21.8791 58.9633 19.3453 59.3527 18.6464C60.1226 17.2663 60.0926 15.5423 59.2728 14.149C58.5462 12.9131 57.3303 12.2031 55.9369 12.2031C54.8808 12.2031 53.3776 13.0806 52.5899 13.8927C52.236 14.2566 52.1029 14.7148 52.2482 15.0609C52.4224 15.4702 52.9383 15.5312 53.2289 15.5312C53.8402 15.5312 54.3383 15.0342 54.3383 14.4219H56.5571C56.5571 16.2568 55.0638 17.75 53.2289 17.75C51.8189 17.75 50.6896 17.0688 50.2059 15.9251C49.7122 14.758 50.0217 13.3547 50.9969 12.3473C52.1007 11.2091 54.1175 9.98438 55.9369 9.98438C58.1368 9.98438 60.0505 11.0926 61.1854 13.0252C62.4012 15.0942 62.4412 17.6635 61.2897 19.728C60.7538 20.6865 58.7725 22.5447 55.3168 25.7442C52.2305 28.6019 47.1052 33.3478 46.617 34.6979C46.759 35.1616 47.1972 35.5 47.6832 35.5C48.2944 35.5 48.7925 35.003 48.7925 34.3906H51.0113C51.0102 36.2255 49.5181 37.7188 47.6832 37.7188Z" fill="url(#paint4_linear)"/>
<path d="M33.2812 46.5937V47.7031C33.2812 49.8387 31.7736 51.6214 29.7634 52.0452C29.3363 52.1351 29.0102 52.4446 28.897 52.8429C30.4157 52.7419 31.7581 52.2737 32.1719 51.0312C32.944 48.7138 35.865 46.9365 37.569 46.0701C37.3804 45.7262 37.0287 45.4844 36.6094 45.4844H34.3906C33.7782 45.4844 33.2812 45.9814 33.2812 46.5937Z" fill="#C08516"/>
<defs>
<linearGradient id="paint0_linear" x1="24.5467" y1="36.8149" x2="44.8751" y2="14.9228" gradientUnits="userSpaceOnUse">
<stop stop-color="#FAA21B"/>
<stop offset="1" stop-color="#FFF200"/>
</linearGradient>
<linearGradient id="paint1_linear" x1="26.1115" y1="64.4165" x2="41.5346" y2="45.9088" gradientUnits="userSpaceOnUse">
<stop stop-color="#FAA21B"/>
<stop offset="1" stop-color="#FFF200"/>
</linearGradient>
<linearGradient id="paint2_linear" x1="34.2622" y1="44.8333" x2="37.157" y2="40.4911" gradientUnits="userSpaceOnUse">
<stop stop-color="#FAA21B"/>
<stop offset="1" stop-color="#FFF200"/>
</linearGradient>
<linearGradient id="paint3_linear" x1="11.4681" y1="33.6495" x2="29.2641" y2="22.2633" gradientUnits="userSpaceOnUse">
<stop stop-color="#FAA21B"/>
<stop offset="1" stop-color="#FFF200"/>
</linearGradient>
<linearGradient id="paint4_linear" x1="46.9982" y1="33.6495" x2="64.7934" y2="22.2653" gradientUnits="userSpaceOnUse">
<stop stop-color="#FAA21B"/>
<stop offset="1" stop-color="#FFF200"/>
</linearGradient>
</defs>
</svg>
