<svg width="56" height="64" viewBox="0 0 56 64" fill="none" xmlns="http://www.w3.org/2000/svg">
<path fill-rule="evenodd" clip-rule="evenodd" d="M29.6406 0.0805359C43.8485 1.16329 55.0397 13.0347 55.0397 27.5199C55.0397 30.9917 54.3945 34.3117 53.2211 37.3703C53.8292 38.956 54.1635 40.6764 54.1635 42.4735C54.1635 50.3563 47.7503 56.7694 39.8675 56.7694V61.3444C39.8675 61.3444 35.4866 64 27.52 64V64.0007C19.5532 64.0007 15.1724 61.3451 15.1724 61.3451V56.7701C7.2895 56.7701 0.876375 50.357 0.876375 42.4742C0.876375 40.677 1.21062 38.9567 1.81875 37.3708C0.645375 34.3123 0 30.9922 0 27.5206C0 13.069 11.1395 1.21909 25.3005 0.0889701L27.5198 1.25062L27.5198 1.25004L29.6406 0.0805359Z" fill="url(#paint0_radial)"/>
<path d="M25.6448 51.3859H29.3948V56.6971H25.6448V51.3859Z" fill="#100A17"/>
<path d="M15.717 48.8029C11.9206 48.8029 8.84314 45.7254 8.84314 41.929C8.84314 38.5857 11.2485 35.7274 14.5425 35.1561L16.6616 34.7886C20.3139 34.1552 23.4906 37.3321 22.8574 40.9844L22.4899 43.1035C21.9186 46.3975 19.0601 48.8029 15.717 48.8029Z" fill="#100A17"/>
<path d="M39.3228 48.8029C43.1192 48.8029 46.1967 45.7254 46.1967 41.929C46.1967 38.5857 43.7913 35.7274 40.4973 35.1561L38.3782 34.7886C34.7259 34.1552 31.5492 37.3321 32.1824 40.9844L32.5499 43.1035C33.1213 46.3975 35.9797 48.8029 39.3228 48.8029Z" fill="#100A17"/>
<path d="M29.8559 17.2137L25.9651 22.9851L29.0745 25.0814L35.1876 16.0135L24.1809 9.49387L29.6405 0.080625C28.9407 0.02725 28.2335 0 27.5199 0C26.7726 0 26.0326 0.030875 25.3005 0.08925L19.0729 10.8265L29.8559 17.2137Z" fill="#100A17"/>
<defs>
<radialGradient id="paint0_radial" cx="0" cy="0" r="1" gradientUnits="userSpaceOnUse" gradientTransform="translate(55.187 3.95963) rotate(180) scale(56.8774 43.7829)">
<stop stop-color="#D7D6DB"/>
<stop offset="1" stop-color="#A8A2A9"/>
</radialGradient>
</defs>
</svg>
