<svg width="14" height="14" viewBox="0 0 14 14" fill="none" xmlns="http://www.w3.org/2000/svg">
<path d="M9.40626 2.7907L7.46406 0.848473C7.40312 0.787531 7.33077 0.739189 7.25115 0.706207C7.17153 0.673226 7.08619 0.65625 7.00001 0.65625C6.91382 0.65625 6.82849 0.673226 6.74886 0.706207C6.66924 0.739189 6.5969 0.787531 6.53596 0.848473L4.59376 2.7907C4.53631 2.84815 4.49073 2.91636 4.45964 2.99143C4.42854 3.06649 4.41254 3.14695 4.41254 3.2282C4.41254 3.30945 4.42854 3.38991 4.45964 3.46497C4.49073 3.54004 4.53631 3.60825 4.59376 3.6657C4.70979 3.78173 4.86717 3.84691 5.03126 3.84691C5.19535 3.84691 5.35272 3.78173 5.46876 3.6657L6.34376 2.7907V4.37502C6.34376 4.54907 6.4129 4.71599 6.53597 4.83906C6.65904 4.96213 6.82596 5.03127 7.00001 5.03127C7.17406 5.03127 7.34098 4.96213 7.46405 4.83906C7.58712 4.71599 7.65626 4.54907 7.65626 4.37502V2.79067L8.53126 3.66567C8.64729 3.7817 8.80466 3.84688 8.96876 3.84688C9.13285 3.84688 9.29022 3.7817 9.40626 3.66567C9.52228 3.54964 9.58746 3.39227 9.58746 3.22819C9.58746 3.0641 9.52228 2.90673 9.40626 2.7907Z" fill="#E5E5E5"/>
<path d="M9.40625 10.3343C9.29022 10.2183 9.13285 10.1531 8.96875 10.1531C8.80466 10.1531 8.64729 10.2183 8.53126 10.3343L7.65626 11.2093V9.625C7.65626 9.45095 7.58712 9.28403 7.46405 9.16096C7.34097 9.03789 7.17406 8.96875 7.00001 8.96875C6.82596 8.96875 6.65904 9.03789 6.53597 9.16096C6.4129 9.28403 6.34376 9.45095 6.34376 9.625V11.2093L5.46876 10.3343C5.35272 10.2183 5.19535 10.1531 5.03126 10.1531C4.86717 10.1531 4.70979 10.2183 4.59376 10.3343C4.53631 10.3918 4.49073 10.46 4.45964 10.535C4.42854 10.6101 4.41254 10.6906 4.41254 10.7718C4.41254 10.8531 4.42854 10.9335 4.45964 11.0086C4.49073 11.0837 4.53631 11.1519 4.59376 11.2093L6.53596 13.1516C6.5969 13.2125 6.66924 13.2608 6.74886 13.2938C6.82849 13.3268 6.91382 13.3438 7.00001 13.3438C7.08619 13.3438 7.17153 13.3268 7.25115 13.2938C7.33077 13.2608 7.40312 13.2125 7.46406 13.1516L9.40625 11.2093C9.46371 11.1519 9.50928 11.0837 9.54038 11.0086C9.57147 10.9335 9.58748 10.8531 9.58748 10.7718C9.58748 10.6906 9.57147 10.6101 9.54038 10.535C9.50928 10.46 9.46371 10.3918 9.40625 10.3343Z" fill="#E5E5E5"/>
<path d="M4.37502 6.34379H2.7907L3.6657 5.46879C3.78173 5.35276 3.84691 5.19538 3.84691 5.03129C3.84691 4.8672 3.78173 4.70982 3.6657 4.59379C3.60825 4.53634 3.54004 4.49076 3.46497 4.45967C3.38991 4.42857 3.30945 4.41257 3.2282 4.41257C3.14695 4.41257 3.06649 4.42857 2.99142 4.45967C2.91636 4.49076 2.84815 4.53634 2.7907 4.59379L0.848473 6.53599C0.787531 6.59693 0.739189 6.66927 0.706207 6.7489C0.673226 6.82852 0.65625 6.91386 0.65625 7.00004C0.65625 7.08622 0.673226 7.17156 0.706207 7.25118C0.739189 7.33081 0.787531 7.40315 0.848473 7.46409L2.7907 9.40629C2.84815 9.46375 2.91636 9.50932 2.99142 9.54042C3.06649 9.57151 3.14695 9.58751 3.2282 9.58751C3.30945 9.58751 3.38991 9.57151 3.46497 9.54042C3.54004 9.50932 3.60825 9.46375 3.6657 9.40629C3.78173 9.29026 3.84691 9.13288 3.84691 8.96879C3.84691 8.8047 3.78173 8.64733 3.6657 8.53129L2.7907 7.65629H4.37502C4.54907 7.65629 4.71599 7.58715 4.83906 7.46408C4.96213 7.34101 5.03127 7.17409 5.03127 7.00004C5.03127 6.82599 4.96213 6.65907 4.83906 6.536C4.71599 6.41293 4.54907 6.34379 4.37502 6.34379Z" fill="#E5E5E5"/>
<path d="M13.1516 6.53599L11.2094 4.59379C11.1519 4.53634 11.0837 4.49076 11.0086 4.45967C10.9336 4.42857 10.8531 4.41257 10.7719 4.41257C10.6906 4.41257 10.6101 4.42857 10.5351 4.45967C10.46 4.49076 10.3918 4.53634 10.3344 4.59379C10.2183 4.70982 10.1531 4.8672 10.1531 5.03129C10.1531 5.19538 10.2183 5.35276 10.3344 5.46879L11.2094 6.34379H9.62503C9.45098 6.34379 9.28406 6.41293 9.16099 6.536C9.03792 6.65907 8.96878 6.82599 8.96878 7.00004C8.96878 7.17409 9.03792 7.34101 9.16099 7.46408C9.28406 7.58715 9.45098 7.65629 9.62503 7.65629H11.2094L10.3344 8.53129C10.2183 8.64733 10.1531 8.8047 10.1531 8.96879C10.1531 9.13288 10.2183 9.29026 10.3344 9.40629C10.3918 9.46375 10.46 9.50932 10.5351 9.54042C10.6101 9.57151 10.6906 9.58751 10.7719 9.58751C10.8531 9.58751 10.9336 9.57151 11.0086 9.54042C11.0837 9.50932 11.1519 9.46375 11.2094 9.40629L13.1516 7.46409C13.2125 7.40315 13.2609 7.33081 13.2939 7.25118C13.3268 7.17156 13.3438 7.08622 13.3438 7.00004C13.3438 6.91386 13.3268 6.82852 13.2939 6.7489C13.2609 6.66927 13.2125 6.59693 13.1516 6.53599Z" fill="#E5E5E5"/>
<path d="M7.00003 8.09381C7.60409 8.09381 8.09378 7.60412 8.09378 7.00006C8.09378 6.396 7.60409 5.90631 7.00003 5.90631C6.39597 5.90631 5.90628 6.396 5.90628 7.00006C5.90628 7.60412 6.39597 8.09381 7.00003 8.09381Z" fill="#989898"/>
</svg>
