<svg width="20" height="20" viewBox="0 0 20 20" fill="none" xmlns="http://www.w3.org/2000/svg">
<g clip-path="url(#clip0)">
<path d="M9.99997 20C9.94325 20 9.88654 19.9918 9.83157 19.9753L3.55552 18.0925C3.34372 18.0289 3.18572 17.8515 3.147 17.6338C3.10829 17.4161 3.19544 17.1952 3.3724 17.0625L4.3765 16.3095C5.17294 15.712 5.64841 14.7611 5.64841 13.7657C5.64841 13.5626 5.75353 13.374 5.9263 13.2672C6.09896 13.1606 6.31466 13.1508 6.49638 13.2416L9.99997 14.9933L13.5036 13.2416C13.6852 13.1507 13.9009 13.1604 14.0736 13.2672C14.2464 13.374 14.3515 13.5626 14.3515 13.7656C14.3515 14.7613 14.827 15.7122 15.6234 16.3093C16.1568 16.7097 16.6274 17.0623 16.6274 17.0623C16.8043 17.1949 16.8916 17.4159 16.8529 17.6337C16.8142 17.8515 16.6562 18.0289 16.4444 18.0924L10.1683 19.9752C10.1135 19.9918 10.0567 20 9.99997 20Z" fill="#E6E3DC"/>
<path d="M10.1684 19.9753L16.4445 18.0925C16.6563 18.0289 16.8143 17.8515 16.853 17.6337C16.8916 17.416 16.8044 17.195 16.6274 17.0624C16.6274 17.0624 16.1569 16.7098 15.6234 16.3094C14.827 15.7123 14.3516 14.7613 14.3516 13.7657C14.3516 13.5627 14.2465 13.3741 14.0737 13.2673C13.901 13.1605 13.6853 13.1508 13.5036 13.2416L10 14.9934V20C10.0567 20 10.1135 19.9918 10.1684 19.9753Z" fill="#CBCBCB"/>
<path d="M11.3519 1.54141C10.9008 1.44113 10.5857 1.04828 10.5857 0.585781C10.5857 0.262187 10.3233 0 9.99971 0C9.67612 0 9.41378 0.2625 9.41378 0.586094C9.41378 1.04824 9.09854 1.44109 8.648 1.54121C5.09858 2.33168 3.76538 5.06437 3.76538 7.30113C3.76538 7.62473 4.02772 7.88707 4.35132 7.88707H15.6482C15.9717 7.88707 16.2341 7.62473 16.2341 7.30113C16.2341 5.05289 14.894 2.32996 11.3519 1.54141Z" fill="#E6E3DC"/>
<path d="M16.2341 7.30113C16.2341 5.05285 14.894 2.32996 11.352 1.54141C10.9008 1.44113 10.5857 1.04828 10.5857 0.585781C10.5857 0.262187 10.3233 0 9.99976 0V7.88707H15.6482C15.9718 7.88707 16.2341 7.62473 16.2341 7.30113Z" fill="#CBCBCB"/>
<path d="M9.99993 16.2344C9.91013 16.2344 9.82036 16.2137 9.7379 16.1725L3.46185 13.0345C3.26333 12.9353 3.13794 12.7324 3.13794 12.5104V7.48956C3.13794 7.23081 3.30767 7.00269 3.55548 6.92835L9.83153 5.04554C9.94141 5.01257 10.0584 5.01257 10.1683 5.04554L16.4443 6.92835C16.6922 7.00269 16.8619 7.23081 16.8619 7.48956V12.5104C16.8619 12.7323 16.7365 12.9352 16.538 13.0344L10.2619 16.1725C10.1795 16.2137 10.0897 16.2344 9.99993 16.2344Z" fill="#E5E5E5"/>
<path d="M10.262 16.1725L16.5381 13.0345C16.7366 12.9353 16.862 12.7324 16.862 12.5104V7.48956C16.862 7.23081 16.6923 7.00269 16.4445 6.92835L10.1684 5.04554C10.1135 5.02906 10.0567 5.02081 10 5.02081V16.2344C10.0898 16.2344 10.1796 16.2137 10.262 16.1725Z" fill="#E5E5E5"/>
<path d="M8.74487 12.7825C8.42128 12.7825 8.15894 12.5202 8.15894 12.1966V8.17993C8.15894 7.85634 8.42128 7.59399 8.74487 7.59399C9.06847 7.59399 9.33081 7.85634 9.33081 8.17993V12.1966C9.33081 12.5202 9.06851 12.7825 8.74487 12.7825Z" fill="#571D1D"/>
<path d="M11.2554 12.7825C10.9318 12.7825 10.6694 12.5202 10.6694 12.1966V8.17993C10.6694 7.85634 10.9318 7.59399 11.2554 7.59399C11.579 7.59399 11.8413 7.85634 11.8413 8.17993V12.1966C11.8413 12.5202 11.579 12.7825 11.2554 12.7825Z" fill="#571D1D"/>
<path d="M6.23438 11.8412C5.91078 11.8412 5.64844 11.5788 5.64844 11.2552V8.9331C5.64844 8.60951 5.91078 8.34717 6.23438 8.34717C6.55797 8.34717 6.82031 8.60951 6.82031 8.9331V11.2552C6.82031 11.5788 6.55797 11.8412 6.23438 11.8412Z" fill="#571D1D"/>
<path d="M13.7654 11.8412C13.4418 11.8412 13.1794 11.5788 13.1794 11.2552V8.9331C13.1794 8.60951 13.4418 8.34717 13.7654 8.34717C14.089 8.34717 14.3513 8.60951 14.3513 8.9331V11.2552C14.3513 11.5788 14.089 11.8412 13.7654 11.8412Z" fill="#571D1D"/>
</g>
<defs>
<clipPath id="clip0">
<rect width="20" height="20" fill="white"/>
</clipPath>
</defs>
</svg>
