<svg width="20" height="20" viewBox="0 0 20 20" fill="none" xmlns="http://www.w3.org/2000/svg">
<path d="M15.6256 3.90625H4.37561C3.56061 5.12875 3.12561 6.56531 3.12561 8.03469V8.90625L3.40686 14.5288L4.7578 14.5312H15.8822L16.5944 14.5278L16.8756 8.90625V8.03469C16.8756 6.56531 16.4406 5.12875 15.6256 3.90625Z" fill="#8C421C"/>
<path d="M6.56311 3.90625C5.95467 4.7175 5.62561 5.70438 5.62561 6.71875V14.5312H6.87561V6.71875C6.87561 5.70438 7.20467 4.7175 7.81311 3.90625H6.56311Z" fill="#FDB62F"/>
<path d="M13.4381 3.90625H12.1881C12.7965 4.7175 13.1256 5.70438 13.1256 6.71875V14.5312H14.3756V6.71875C14.3756 5.70438 14.0465 4.7175 13.4381 3.90625Z" fill="#FDB62F"/>
<path d="M5.62561 10.1562H6.87561V10.7812H5.62561V10.1562Z" fill="#DB9E29"/>
<path d="M13.1256 10.1562H14.3756V10.7812H13.1256V10.1562Z" fill="#DB9E29"/>
<path d="M3.40686 14.5287L3.43811 15.1562L9.06311 16.0937L10.0006 15.4687L10.9381 16.0937L16.5631 15.1562L16.5944 14.53L3.40686 14.5287Z" fill="#783918"/>
<path d="M18.7803 6.64375C18.5847 5.08 17.2553 3.90625 15.6794 3.90625H15.6256C16.4406 5.12875 16.8756 6.56531 16.8756 8.03469V8.90625L16.5631 15.1562V16.0938H18.4381L18.8656 11.1778C18.9312 10.4219 18.9569 9.66375 18.9425 8.90625C18.9284 8.15031 18.8744 7.395 18.7803 6.64375Z" fill="#FDB62F"/>
<path d="M4.3756 3.90625H4.32185C2.74591 3.90625 1.41653 5.07969 1.22091 6.64375C1.03278 8.14781 1.00435 9.66781 1.1356 11.1781L1.5631 16.0938H3.4381V15.1562L3.1256 8.90625V8.03469C3.1256 6.56531 3.5606 5.12875 4.3756 3.90625Z" fill="#FDB62F"/>
<path d="M3.39128 14.2188H1.40002L1.56315 16.0938H3.43815V15.1562L3.39128 14.2188Z" fill="#EDAB2C"/>
<path d="M16.61 14.2188L16.5631 15.1562V16.0938H18.4381L18.6012 14.2188H16.61Z" fill="#EDAB2C"/>
<path d="M2.18811 7.96875C2.01561 7.96875 1.87561 7.82875 1.87561 7.65625C1.87561 7.48375 2.01561 7.34375 2.18811 7.34375C2.36061 7.34375 2.50061 7.48375 2.50061 7.65625C2.50061 7.82875 2.36061 7.96875 2.18811 7.96875Z" fill="#30160A"/>
<path d="M2.18811 10.4688C2.01561 10.4688 1.87561 10.3287 1.87561 10.1562C1.87561 9.98375 2.01561 9.84375 2.18811 9.84375C2.36061 9.84375 2.50061 9.98375 2.50061 10.1562C2.50061 10.3287 2.36061 10.4688 2.18811 10.4688Z" fill="#30160A"/>
<path d="M2.18811 12.9688C2.01561 12.9688 1.87561 12.8287 1.87561 12.6562C1.87561 12.4838 2.01561 12.3438 2.18811 12.3438C2.36061 12.3438 2.50061 12.4838 2.50061 12.6562C2.50061 12.8287 2.36061 12.9688 2.18811 12.9688Z" fill="#30160A"/>
<path d="M17.8131 7.96875C17.6406 7.96875 17.5006 7.82875 17.5006 7.65625C17.5006 7.48375 17.6406 7.34375 17.8131 7.34375C17.9856 7.34375 18.1256 7.48375 18.1256 7.65625C18.1256 7.82875 17.9856 7.96875 17.8131 7.96875Z" fill="#30160A"/>
<path d="M17.8131 10.4688C17.6406 10.4688 17.5006 10.3287 17.5006 10.1562C17.5006 9.98375 17.6406 9.84375 17.8131 9.84375C17.9856 9.84375 18.1256 9.98375 18.1256 10.1562C18.1256 10.3287 17.9856 10.4688 17.8131 10.4688Z" fill="#30160A"/>
<path d="M17.8131 12.9688C17.6406 12.9688 17.5006 12.8287 17.5006 12.6562C17.5006 12.4838 17.6406 12.3438 17.8131 12.3438C17.9856 12.3438 18.1256 12.4838 18.1256 12.6562C18.1256 12.8287 17.9856 12.9688 17.8131 12.9688Z" fill="#30160A"/>
<path opacity="0.16" d="M1.05872 8.59375H18.9428V9.21875H1.05872V8.59375Z" fill="black"/>
<path d="M10.7356 10.6313L10.4906 10.0563C10.9522 9.85906 11.2506 9.40781 11.2506 8.90625C11.2506 8.21688 10.69 7.65625 10.0006 7.65625C9.31124 7.65625 8.75061 8.21688 8.75061 8.90625C8.75061 9.40781 9.04905 9.85906 9.51092 10.0563L9.26592 10.6313C8.57311 10.3356 8.12561 9.65875 8.12561 8.90625C8.12561 7.87219 8.96655 7.03125 10.0006 7.03125C11.0347 7.03125 11.8756 7.87219 11.8756 8.90625C11.8756 9.65875 11.4281 10.3356 10.7356 10.6313Z" fill="#30160A"/>
<path d="M11.2506 10.7812H10.9381V10.4688C10.9381 9.95187 10.5175 9.53125 10.0006 9.53125C9.48374 9.53125 9.06311 9.95187 9.06311 10.4688V10.7812H8.75061C8.57811 10.7812 8.43811 10.9212 8.43811 11.0938V13.5938C8.43811 13.7663 8.57811 13.9062 8.75061 13.9062H11.2506C11.4231 13.9062 11.5631 13.7663 11.5631 13.5938V11.0938C11.5631 10.9212 11.4231 10.7812 11.2506 10.7812ZM9.68811 10.4688C9.68811 10.2966 9.82842 10.1562 10.0006 10.1562C10.1728 10.1562 10.3131 10.2966 10.3131 10.4688V10.7812H9.68811V10.4688Z" fill="#FDB62F"/>
<path d="M10.3131 12.0312C10.3131 11.8588 10.1731 11.7188 10.0006 11.7188C9.82811 11.7188 9.68811 11.8588 9.68811 12.0312C9.68811 12.1416 9.74842 12.2338 9.83467 12.2894V13.2772H10.1669V12.2894C10.2528 12.2334 10.3131 12.1413 10.3131 12.0312Z" fill="#30160A"/>
</svg>
