<svg width="30" height="30" viewBox="0 0 30 30" fill="none" xmlns="http://www.w3.org/2000/svg">
<path d="M14.5 27C21.4036 27 27 21.4036 27 14.5C27 7.59644 21.4036 2 14.5 2C7.59644 2 2 7.59644 2 14.5C2 21.4036 7.59644 27 14.5 27Z" fill="url(#paint0_radial)"/>
<path fill-rule="evenodd" clip-rule="evenodd" d="M13.4762 10.3611C14.1052 10.9002 14.178 11.8472 13.6389 12.4762L11.4756 15L13.6389 17.5238C14.178 18.1528 14.1052 19.0997 13.4762 19.6389C12.8472 20.178 11.9002 20.1051 11.3611 19.4762L8.36112 15.9762C7.87963 15.4144 7.87963 14.5855 8.36112 14.0238L11.3611 10.5238C11.9002 9.89479 12.8472 9.82195 13.4762 10.3611Z" fill="#100A17"/>
<path fill-rule="evenodd" clip-rule="evenodd" d="M19.4762 10.3611C20.1052 10.9002 20.178 11.8472 19.6389 12.4762L17.4756 15L19.6389 17.5238C20.178 18.1528 20.1052 19.0997 19.4762 19.6389C18.8472 20.178 17.9002 20.1051 17.3611 19.4762L14.3611 15.9762C13.8796 15.4144 13.8796 14.5855 14.3611 14.0238L17.3611 10.5238C17.9002 9.89479 18.8472 9.82195 19.4762 10.3611Z" fill="#100A17"/>
<defs>
<radialGradient id="paint0_radial" cx="0" cy="0" r="1" gradientUnits="userSpaceOnUse" gradientTransform="translate(27.0669 3.51717) rotate(180) scale(25.8347 17.1241)">
<stop stop-color="#D7D6DB"/>
<stop offset="1" stop-color="#A8A2A9"/>
</radialGradient>
</defs>
</svg>
