<svg width="15" height="14" viewBox="0 0 15 14" fill="none" xmlns="http://www.w3.org/2000/svg">
<path d="M13.2764 5.75H9.02637C8.88831 5.75 8.77637 5.63806 8.77637 5.5V1.25C8.77637 0.559692 8.21667 0 7.52637 0C6.83606 0 6.27637 0.559692 6.27637 1.25V5.5C6.27637 5.63806 6.16443 5.75 6.02637 5.75H1.77637C1.08606 5.75 0.526367 6.30969 0.526367 7C0.526367 7.69031 1.08606 8.25 1.77637 8.25H6.02637C6.16443 8.25 6.27637 8.36194 6.27637 8.5V12.75C6.27637 13.4403 6.83606 14 7.52637 14C8.21667 14 8.77637 13.4403 8.77637 12.75V8.5C8.77637 8.36194 8.88831 8.25 9.02637 8.25H13.2764C13.9667 8.25 14.5264 7.69031 14.5264 7C14.5264 6.30969 13.9667 5.75 13.2764 5.75Z" fill="url(#paint0_radial)"/>
<defs>
<radialGradient id="paint0_radial" cx="0" cy="0" r="1" gradientUnits="userSpaceOnUse" gradientTransform="translate(14.5638 0.849613) rotate(180) scale(14.4674 9.58948)">
<stop stop-color="#D7D6DB"/>
<stop offset="1" stop-color="#A8A2A9"/>
</radialGradient>
</defs>
</svg>
